<!-- Generated by IcoMoon.io -->
<svg version="1.1" xmlns="http://www.w3.org/2000/svg" width="32" height="32" viewBox="0 0 32 32">
<title>menu-3</title>
<path fill="#94a2b6" d="M5.333 2.667c-1.467 0-2.667 1.2-2.667 2.667v21.333c0 1.467 1.2 2.667 2.667 2.667h21.333c1.467 0 2.667-1.2 2.667-2.667v-21.333c0-1.467-1.2-2.667-2.667-2.667h-21.333zM0 5.333c0-2.933 2.4-5.333 5.333-5.333h21.333c2.933 0 5.333 2.4 5.333 5.333v21.333c0 2.933-2.4 5.333-5.333 5.333h-21.333c-2.933 0-5.333-2.4-5.333-5.333v-21.333zM8 5.333c-1.467 0-2.667 1.2-2.667 2.667v16c0 1.467 1.2 2.667 2.667 2.667h16c1.467 0 2.667-1.2 2.667-2.667v-16c0-1.467-1.2-2.667-2.667-2.667h-16zM24 14.667h-6.667v-6.667h6.667v6.667zM17.333 17.333h6.667v6.667h-6.667v-6.667zM14.667 14.667h-6.667v-6.667h6.667v6.667zM8 17.333h6.667v6.667h-6.667v-6.667z"></path>
</svg>
