<!-- Generated by IcoMoon.io -->
<svg version="1.1" xmlns="http://www.w3.org/2000/svg" width="32" height="32" viewBox="0 0 32 32">
<title>menu-2</title>
<path fill="#94a2b6" d="M9.733 0c0.8 0 1.333 0.533 1.333 1.333v1.333h9.733v-1.333c0-0.8 0.667-1.333 1.333-1.333s1.333 0.533 1.333 1.333v1.333c4.133 0 7.2 2.933 7.2 6.667v16c0 3.733-3.067 6.667-6.933 6.667h-15.467c-3.867 0-6.933-2.933-6.933-6.667v-16c0-3.733 3.067-6.667 6.933-6.667v0-1.333c0-0.8 0.667-1.333 1.467-1.333zM4.133 14.667v10.667c0 2.267 1.867 4 4.133 4h15.333c2.267 0 4.133-1.733 4.133-4v-10.667h-23.6zM27.467 12v-2.667c0-2.267-1.867-4-4.133-4v2.667c0 0.8-0.667 1.333-1.333 1.333s-1.333-0.533-1.333-1.333v-2.667h-9.733v2.667c0 0.8-0.667 1.333-1.333 1.333s-1.333-0.533-1.333-1.333v-2.667c-2.267 0-4.133 1.733-4.133 4v2.667h23.733zM11.733 18.667c0-0.667-0.533-1.333-1.2-1.333h-1.2c-0.667 0-1.2 0.533-1.2 1.333 0 0.667 0.533 1.333 1.2 1.333h1.2c0.667 0 1.2-0.533 1.2-1.333zM11.733 24c0-0.667-0.533-1.333-1.2-1.333h-1.2c-0.667 0-1.2 0.533-1.2 1.333 0 0.667 0.533 1.333 1.2 1.333h1.2c0.667 0 1.2-0.533 1.2-1.333zM22.8 20.133h-1.2c-0.667 0-1.2-0.533-1.2-1.333 0-0.667 0.533-1.333 1.2-1.333h1.2c0.667 0 1.2 0.667 1.2 1.333s-0.533 1.333-1.2 1.333zM24 24c0-0.667-0.533-1.333-1.2-1.333h-1.2c-0.667 0-1.2 0.533-1.2 1.333 0 0.667 0.533 1.333 1.2 1.333h1.2c0.667 0 1.2-0.533 1.2-1.333zM16.667 20.133h-1.2c-0.667 0-1.2-0.533-1.2-1.333 0-0.667 0.533-1.333 1.2-1.333h1.2c0.667 0 1.2 0.667 1.2 1.333s-0.533 1.333-1.2 1.333zM17.867 24c0-0.667-0.533-1.333-1.2-1.333h-1.2c-0.667 0-1.2 0.533-1.2 1.333 0 0.667 0.533 1.333 1.2 1.333h1.2c0.667 0 1.2-0.533 1.2-1.333z"></path>
</svg>
