<!-- Generated by IcoMoon.io -->
<svg version="1.1" xmlns="http://www.w3.org/2000/svg" width="32" height="32" viewBox="0 0 32 32">
<title>menu-1</title>
<path fill="#94a2b6" d="M27.2 2.667l-4.533 4.533v-0.533c0-0.8-0.533-1.333-1.333-1.333s-1.333 0.533-1.333 1.333v4c0 0.8 0.533 1.333 1.333 1.333h4c0.8 0 1.333-0.533 1.333-1.333s-0.533-1.333-1.333-1.333h-1.067l5.067-5.067v1.067c0 0.8 0.533 1.333 1.333 1.333s1.333-0.533 1.333-1.333v-4c0-0.8-0.533-1.333-1.333-1.333h-4c-0.8 0-1.333 0.533-1.333 1.333s0.533 1.333 1.333 1.333h0.533zM11.2 14.667l-8.533 8.533v4.267l12.8-12.8h-4.267zM7.467 14.667h-3.467c-0.8 0-1.333 0.533-1.333 1.333v3.467l4.8-4.8zM16 29.333c0.8 0 1.333-0.533 1.333-1.333v-3.467l-4.8 4.8h3.467zM9.333 32v0h-5.333c-2.267 0-4-1.733-4-4v-12c0-2.267 1.733-4 4-4h12c2.267 0 4 1.733 4 4v12c0 2.267-1.733 4-4 4h-6.667zM4.533 29.333h4.267l8.533-8.533v-4.267l-12.8 12.8zM6 1.733c0 0.933-0.8 1.733-1.733 1.733s-1.6-0.933-1.6-1.733c0-0.933 0.8-1.733 1.733-1.733s1.6 0.8 1.6 1.733zM28.667 11.067c0 0.933 0.8 1.733 1.733 1.733s1.6-0.933 1.6-1.733-0.8-1.733-1.6-1.733-1.733 0.8-1.733 1.733zM22 1.733c0 0.933-0.8 1.733-1.733 1.733s-1.6-0.933-1.6-1.733c0-0.933 0.8-1.733 1.733-1.733s1.6 0.8 1.6 1.733zM28.667 27.067c0 0.933 0.8 1.733 1.733 1.733s1.733-0.8 1.733-1.733-0.933-1.733-1.733-1.733-1.733 0.8-1.733 1.733zM16.667 1.733c0 0.933-0.8 1.733-1.733 1.733s-1.6-0.933-1.6-1.733c0-0.933 0.8-1.733 1.733-1.733s1.6 0.8 1.6 1.733zM28.667 21.733c0 0.933 0.8 1.733 1.733 1.733s1.733-0.8 1.733-1.733c0-0.933-0.8-1.733-1.733-1.733s-1.733 0.8-1.733 1.733zM11.333 1.733c0 0.933-0.8 1.733-1.733 1.733s-1.6-0.933-1.6-1.733c0-0.933 0.8-1.733 1.733-1.733s1.6 0.8 1.6 1.733zM28.667 16.4c0 0.933 0.8 1.733 1.733 1.733s1.733-0.8 1.733-1.733-0.933-1.733-1.733-1.733-1.733 0.8-1.733 1.733zM6 7.067c0 0.933-0.8 1.733-1.733 1.733s-1.6-0.933-1.6-1.733 0.8-1.733 1.733-1.733 1.6 0.8 1.6 1.733zM22.667 27.067c0 0.933 0.8 1.733 1.733 1.733s1.733-0.8 1.733-1.733-0.933-1.733-1.733-1.733-1.733 0.8-1.733 1.733z"></path>
</svg>
