<!-- Generated by IcoMoon.io -->
<svg version="1.1" xmlns="http://www.w3.org/2000/svg" width="32" height="32" viewBox="0 0 32 32">
<title>search</title>
<path fill="#cbd3e3" d="M24 13.333c0-5.867-4.8-10.667-10.667-10.667s-10.667 4.8-10.667 10.667c0 5.867 4.8 10.667 10.667 10.667s10.667-4.8 10.667-10.667zM21.733 23.6c-2.267 2-5.2 3.067-8.4 3.067-7.333 0-13.333-6-13.333-13.333s6-13.333 13.333-13.333c7.333 0 13.333 6 13.333 13.333 0 3.2-1.067 6.133-3.067 8.4l8 8c0.533 0.533 0.533 1.333 0 1.867s-1.333 0.533-1.867 0l-8-8z"></path>
</svg>
