<?xml version="1.0" encoding="utf-8"?>
<!-- Generator: Adobe Illustrator 23.0.3, SVG Export Plug-In . SVG Version: 6.00 Build 0)  -->
<svg version="1.1" id="Слой_1" xmlns="http://www.w3.org/2000/svg" xmlns:xlink="http://www.w3.org/1999/xlink" x="0px" y="0px"
	 viewBox="0 0 24 24" style="enable-background:new 0 0 24 24;" xml:space="preserve">
<style type="text/css">
	.st0{fill-rule:evenodd;clip-rule:evenodd;fill:#94A2B6;}
</style>
<path class="st0" d="M7.3,0c0.6,0,1,0.4,1,1v1h7.3V1c0-0.6,0.5-1,1-1s1,0.4,1,1v1C20.7,2,23,4.2,23,7v3v9c0,2.8-2.3,5-5.2,5H6.2
	C3.3,24,1,21.8,1,19v-9V7c0-2.8,2.3-5,5.2-5h0V1C6.2,0.4,6.7,0,7.3,0z M3.1,11v8c0,1.7,1.4,3,3.1,3h11.5c1.7,0,3.1-1.3,3.1-3v-8H3.1
	z M20.9,9H3.1V7c0-1.7,1.4-3,3.1-3h0v2c0,0.6,0.5,1,1,1s1-0.4,1-1V4h7.3v2c0,0.6,0.5,1,1,1s1-0.4,1-1V4c1.7,0,3.1,1.3,3.1,3V9z
	 M8.8,14c0,0.6-0.4,1-0.9,1l-0.9,0c-0.5,0-0.9-0.5-0.9-1c0-0.6,0.4-1,0.9-1l0.9,0C8.4,13,8.8,13.5,8.8,14z M8.8,18
	c0,0.6-0.4,1-0.9,1l-0.9,0c-0.5,0-0.9-0.5-0.9-1c0-0.6,0.4-1,0.9-1l0.9,0C8.4,17,8.8,17.5,8.8,18z M17.1,15.1c0.5,0,0.9-0.5,0.9-1
	s-0.4-1-0.9-1l-0.9,0c-0.5,0-0.9,0.5-0.9,1c0,0.6,0.4,1,0.9,1L17.1,15.1z M18,18c0,0.6-0.4,1-0.9,1l-0.9,0c-0.5,0-0.9-0.5-0.9-1
	c0-0.6,0.4-1,0.9-1l0.9,0C17.6,17,18,17.5,18,18z M12.5,15.1c0.5,0,0.9-0.5,0.9-1s-0.4-1-0.9-1l-0.9,0c-0.5,0-0.9,0.5-0.9,1
	c0,0.6,0.4,1,0.9,1L12.5,15.1z M13.4,18c0,0.6-0.4,1-0.9,1l-0.9,0c-0.5,0-0.9-0.5-0.9-1c0-0.6,0.4-1,0.9-1l0.9,0
	C13,17,13.4,17.5,13.4,18z"/>
</svg>
