<?xml version="1.0" encoding="utf-8"?>
<!-- Generator: Adobe Illustrator 23.0.3, SVG Export Plug-In . SVG Version: 6.00 Build 0)  -->
<svg version="1.1" id="Слой_1" xmlns="http://www.w3.org/2000/svg" xmlns:xlink="http://www.w3.org/1999/xlink" x="0px" y="0px"
	 viewBox="0 0 24 24" style="enable-background:new 0 0 24 24;" xml:space="preserve">
<style type="text/css">
	.st0{fill-rule:evenodd;clip-rule:evenodd;fill:#94A2B6;}
</style>
<path class="st0" d="M4,2h16c1.1,0,2,0.9,2,2v16c0,1.1-0.9,2-2,2H4c-1.1,0-2-0.9-2-2V4C2,2.9,2.9,2,4,2z M0,4c0-2.2,1.8-4,4-4h16
	c2.2,0,4,1.8,4,4v16c0,2.2-1.8,4-4,4H4c-2.2,0-4-1.8-4-4V4z M6,4C4.9,4,4,4.9,4,6v12c0,1.1,0.9,2,2,2h6h6c1.1,0,2-0.9,2-2v-6V6
	c0-1.1-0.9-2-2-2h-6H6z M18,11V6h-5v5H18z M13,13h5v5h-5V13z M11,11V6H6v5H11z M6,13h5v5H6V13z"/>
</svg>
