<?xml version="1.0" encoding="utf-8"?>
<!-- Generator: Adobe Illustrator 23.0.3, SVG Export Plug-In . SVG Version: 6.00 Build 0)  -->
<svg version="1.1" id="Слой_1" xmlns="http://www.w3.org/2000/svg" xmlns:xlink="http://www.w3.org/1999/xlink" x="0px" y="0px"
	 viewBox="0 0 24 24" style="enable-background:new 0 0 24 24;" xml:space="preserve">
<style type="text/css">
	.st0{fill-rule:evenodd;clip-rule:evenodd;fill:#94A2B6;}
</style>
<path class="st0" d="M20.4,2H20c-0.6,0-1-0.4-1-1c0-0.6,0.4-1,1-1h3c0.6,0,1,0.4,1,1v3c0,0.6-0.4,1-1,1s-1-0.4-1-1V3.2L18.2,7H19
	c0.6,0,1,0.4,1,1c0,0.6-0.4,1-1,1h-3c-0.6,0-1-0.4-1-1V5c0-0.6,0.4-1,1-1c0.6,0,1,0.4,1,1v0.4L20.4,2z M8.4,11h3.2L2,20.6v-3.2
	L8.4,11z M5.6,11H3c-0.6,0-1,0.4-1,1v2.6L5.6,11z M12,22H9.4l3.6-3.6V21C13,21.6,12.6,22,12,22z M7,24L7,24H3c-1.7,0-3-1.3-3-3v-9
	c0-1.7,1.3-3,3-3h9c1.7,0,3,1.3,3,3v4v0v5c0,1.7-1.3,3-3,3H7z M3.4,22h3.2l6.4-6.4v-3.2L3.4,22z M4.5,1.3c0,0.7-0.6,1.3-1.3,1.3
	S2,1.9,2,1.3C2,0.6,2.6,0,3.3,0S4.5,0.6,4.5,1.3z M21.5,8.3c0,0.7,0.6,1.3,1.3,1.3S24,8.9,24,8.3S23.4,7,22.8,7S21.5,7.6,21.5,8.3z
	 M16.5,1.3c0,0.7-0.6,1.3-1.3,1.3S14,1.9,14,1.3C14,0.6,14.6,0,15.3,0S16.5,0.6,16.5,1.3z M21.5,20.3c0,0.7,0.6,1.3,1.3,1.3
	s1.3-0.6,1.3-1.3S23.4,19,22.8,19S21.5,19.6,21.5,20.3z M12.5,1.3c0,0.7-0.6,1.3-1.3,1.3S10,1.9,10,1.3C10,0.6,10.6,0,11.3,0
	S12.5,0.6,12.5,1.3z M21.5,16.3c0,0.7,0.6,1.3,1.3,1.3s1.3-0.6,1.3-1.3c0-0.7-0.6-1.3-1.3-1.3S21.5,15.6,21.5,16.3z M8.5,1.3
	c0,0.7-0.6,1.3-1.3,1.3S6,1.9,6,1.3C6,0.6,6.6,0,7.3,0S8.5,0.6,8.5,1.3z M21.5,12.3c0,0.7,0.6,1.3,1.3,1.3s1.3-0.6,1.3-1.3
	S23.4,11,22.8,11S21.5,11.6,21.5,12.3z M4.5,5.3c0,0.7-0.6,1.3-1.3,1.3S2,5.9,2,5.3S2.6,4,3.3,4S4.5,4.6,4.5,5.3z M17,20.3
	c0,0.7,0.6,1.3,1.3,1.3s1.3-0.6,1.3-1.3S18.9,19,18.3,19S17,19.6,17,20.3z"/>
</svg>
