<?xml version="1.0" encoding="utf-8"?>
<!-- Generator: Adobe Illustrator 23.0.3, SVG Export Plug-In . SVG Version: 6.00 Build 0)  -->
<svg version="1.1" id="Слой_1" xmlns="http://www.w3.org/2000/svg" xmlns:xlink="http://www.w3.org/1999/xlink" x="0px" y="0px"
	 viewBox="0 0 24 24.2" style="enable-background:new 0 0 24 24.2;" xml:space="preserve">
<style type="text/css">
	.st0{fill-rule:evenodd;clip-rule:evenodd;fill:#0177FD;}
</style>
<path class="st0" d="M8.5,5.4c1.3-0.7,1.8-2.1,1.8-3.5h4c-0.1,1.4,0.5,2.9,1.8,3.6c1.3,0.7,2.7,0.5,3.9-0.2l2,3.4
	c-1.3,0.6-2.2,1.8-2.2,3.3c0,1.5,1,2.7,2.2,3.3l-2,3.4c-1.2-0.8-2.8-1.1-4.1-0.4c-1.3,0.8-1.9,2.3-1.7,3.7h-4
	c0.2-1.5-0.4-3.1-1.7-3.9c-1.3-0.8-2.9-0.5-4.1,0.4l-2-3.5c1.4-0.6,2.5-1.8,2.5-3.4c0-1.5-1-2.7-2.2-3.3l2-3.4
	C5.6,5.9,7.2,6.2,8.5,5.4z M9.8,0c-1,0-1.6,1-1.5,1.8c0.1,0.9-0.2,1.6-0.8,2C7,4.1,6.1,4,5.3,3.3C4.7,2.8,3.5,2.7,2.9,3.7L0.5,8
	c-0.5,0.9,0.1,1.9,0.8,2.2c0.9,0.3,1.4,1,1.4,1.7c0,0.7-0.5,1.4-1.6,1.7c-0.8,0.2-1.5,1.3-0.9,2.2l2.5,4.4c0.5,0.9,1.7,0.9,2.4,0.3
	c0.8-0.7,1.6-0.8,2.2-0.4c0.6,0.3,1,1.2,0.7,2.2c-0.2,0.8,0.4,1.9,1.5,1.9h5c1.1,0,1.6-1,1.5-1.9c-0.2-1,0.2-1.8,0.7-2.1
	c0.6-0.3,1.4-0.2,2.2,0.4c0.6,0.6,1.8,0.6,2.4-0.3l2.5-4.3c0.5-0.9-0.1-1.9-0.8-2.2c-0.9-0.3-1.4-1-1.4-1.7c0-0.6,0.5-1.3,1.4-1.7
	c0.8-0.3,1.4-1.3,0.8-2.2L21.3,4C20.8,3,19.7,3,19,3.5c-0.7,0.6-1.5,0.6-2.1,0.3c-0.6-0.3-0.9-1.1-0.7-2C16.4,1,15.8,0,14.7,0H9.8z
	 M8.7,12.3c0-1.9,1.5-3.4,3.4-3.4s3.4,1.5,3.4,3.4c0,1.9-1.5,3.4-3.4,3.4S8.7,14.2,8.7,12.3z M12.1,6.9c-3,0-5.4,2.4-5.4,5.4
	c0,3,2.4,5.4,5.4,5.4c3,0,5.4-2.4,5.4-5.4C17.5,9.3,15.1,6.9,12.1,6.9z"/>
</svg>
