<?xml version="1.0" encoding="utf-8"?>
<!-- Generator: Adobe Illustrator 23.0.3, SVG Export Plug-In . SVG Version: 6.00 Build 0)  -->
<svg version="1.1" id="Слой_1" xmlns="http://www.w3.org/2000/svg" xmlns:xlink="http://www.w3.org/1999/xlink" x="0px" y="0px"
	 viewBox="0 0 150 50" style="enable-background:new 0 0 150 50;" xml:space="preserve">
<style type="text/css">
	.st0{fill-rule:evenodd;clip-rule:evenodd;fill:#94A2B6;}
	.st1{fill-rule:evenodd;clip-rule:evenodd;fill:url(#SVGID_1_);}
	.st2{fill:url(#SVGID_2_);}
</style>
<path class="st0" d="M48.3,19.8c1.1,0.4,2.3,0.6,3.5,0.6c1.1,0,2.2-0.1,3.1-0.4c1-0.2,1.8-0.6,2.5-1.2c0.7-0.5,1.3-1.2,1.8-2.1
	c0.4-0.9,0.7-1.9,0.8-3.1h-4.4c-0.1,1.1-0.6,1.9-1.3,2.4c-0.7,0.5-1.6,0.8-2.6,0.8c-0.5,0-1.1-0.1-1.6-0.3c-0.5-0.2-1-0.6-1.4-1.1
	c-0.4-0.5-0.7-1.2-1-2c-0.3-0.8-0.4-1.9-0.4-3.1V9.8c0-1.2,0.1-2.2,0.4-2.9c0.3-0.8,0.6-1.4,1-1.9c0.4-0.5,0.9-0.8,1.4-1
	c0.5-0.2,1.1-0.3,1.7-0.3c1,0,1.9,0.3,2.5,0.8c0.7,0.5,1.1,1.3,1.3,2.5H60c-0.1-1.2-0.3-2.2-0.8-3.1c-0.4-0.9-1-1.6-1.8-2.1
	c-0.7-0.6-1.6-1-2.5-1.2c-1-0.3-2-0.4-3.1-0.4c-1.2,0-2.4,0.2-3.5,0.6c-1.1,0.4-2,1-2.8,1.7c-0.8,0.8-1.4,1.8-1.9,3
	C43.2,6.6,43,8.1,43,9.8v0.6c0,1.8,0.2,3.3,0.6,4.6c0.4,1.3,1.1,2.3,1.8,3.1C46.3,18.8,47.2,19.4,48.3,19.8z M65.6,20.3
	c0.2,0,0.4,0,0.6,0c0.9,0,1.7-0.1,2.3-0.3c0.7-0.2,1.3-0.4,1.8-0.8c0.5-0.4,1-0.9,1.3-1.5c0.4-0.6,0.8-1.4,1.2-2.2l6.6-15.1h-4.4
	l-4.4,10.5L65.3,0.4h-4.5l8,14.6c-0.2,0.4-0.3,0.7-0.4,0.9c-0.1,0.2-0.3,0.4-0.4,0.6c-0.2,0.1-0.4,0.3-0.6,0.3
	c-0.2,0.1-0.6,0.1-1,0.1h-0.6c-0.2,0-0.4,0-0.5-0.1v3.3C65.2,20.3,65.4,20.3,65.6,20.3z M88.4,20.3c-1.1,0-2.2-0.1-3.1-0.4
	c-1-0.2-1.8-0.6-2.5-1.2c-0.7-0.5-1.3-1.2-1.8-2.1c-0.4-0.9-0.7-1.9-0.8-3.1h4.4c0.1,1.1,0.6,1.9,1.3,2.4c0.7,0.5,1.6,0.8,2.6,0.8
	c0.5,0,1-0.1,1.5-0.3c0.5-0.2,0.9-0.5,1.3-0.9c0.4-0.4,0.7-0.9,1-1.6c0.3-0.7,0.5-1.5,0.6-2.4H86V8.4h6.7c-0.2-1.7-0.7-2.9-1.5-3.7
	c-0.8-0.7-1.7-1.1-2.9-1.1c-1,0-1.9,0.3-2.5,0.8c-0.7,0.5-1.1,1.3-1.3,2.5h-4.4c0.1-1.2,0.3-2.2,0.8-3.1c0.5-0.9,1.1-1.6,1.8-2.1
	c0.7-0.6,1.6-1,2.6-1.2c1-0.3,2-0.4,3.1-0.4c1.2,0,2.4,0.2,3.5,0.6c1.1,0.4,2,1,2.8,1.8c0.8,0.8,1.4,1.8,1.9,3
	c0.4,1.2,0.7,2.7,0.7,4.3v0.6c0,1.8-0.2,3.3-0.7,4.6c-0.4,1.3-1.1,2.3-1.9,3.1c-0.8,0.8-1.7,1.4-2.8,1.7
	C90.8,20.1,89.6,20.3,88.4,20.3z M101.8,18.6c1.4,1.2,3.3,1.7,5.9,1.7c1.4,0,2.5-0.1,3.5-0.4c1-0.3,1.9-0.7,2.5-1.2
	c0.7-0.5,1.2-1.1,1.5-1.8c0.3-0.7,0.5-1.5,0.5-2.4c0-1.3-0.3-2.3-1-3.1c-0.6-0.8-1.5-1.3-2.7-1.6c1-0.3,1.7-0.8,2.2-1.5
	c0.5-0.7,0.8-1.6,0.8-2.6c0-1.7-0.6-3.1-1.8-4.1c-1.2-1-3.1-1.5-5.6-1.5c-2.5,0-4.4,0.5-5.7,1.6c-1.2,1-1.9,2.5-2,4.5h4.4
	c0.1-0.9,0.4-1.5,0.9-1.9c0.5-0.4,1.4-0.6,2.4-0.6c1.1,0,1.8,0.2,2.3,0.6c0.5,0.4,0.7,1,0.7,1.7c0,0.4-0.1,0.7-0.2,1
	c-0.1,0.3-0.3,0.6-0.6,0.8c-0.2,0.2-0.6,0.4-1,0.6c-0.4,0.1-0.9,0.2-1.5,0.2h-2.1v2.9h2.1c1.5,0,2.5,0.3,3,0.8
	c0.6,0.5,0.9,1.1,0.9,2s-0.3,1.5-0.9,2c-0.6,0.5-1.5,0.7-2.9,0.7c-1.2,0-2.1-0.3-2.7-0.8c-0.6-0.5-0.9-1.3-1-2.2h-4.4
	C99.7,15.8,100.4,17.4,101.8,18.6z M46.1,36.1c-0.4,0-0.8-0.1-1.1-0.2c-0.4-0.1-0.7-0.4-0.9-0.6c-0.3-0.3-0.5-0.7-0.6-1.1
	c-0.2-0.4-0.2-1-0.2-1.6v-0.2c0-0.6,0.1-1.1,0.2-1.5c0.2-0.4,0.4-0.8,0.6-1.1c0.3-0.3,0.6-0.5,0.9-0.6c0.4-0.1,0.7-0.2,1.1-0.2
	c0.4,0,0.7,0,1,0.1c0.3,0.1,0.6,0.2,0.8,0.4c0.2,0.2,0.4,0.4,0.6,0.7c0.2,0.3,0.2,0.6,0.3,0.9h-1c-0.1-0.5-0.3-0.8-0.6-1
	c-0.3-0.2-0.7-0.3-1.2-0.3c-0.2,0-0.5,0-0.7,0.1c-0.2,0.1-0.4,0.2-0.6,0.5c-0.2,0.2-0.3,0.5-0.4,0.8c-0.1,0.3-0.2,0.7-0.2,1.2v0.2
	c0,0.5,0.1,0.9,0.2,1.3c0.1,0.3,0.3,0.6,0.5,0.8c0.2,0.2,0.4,0.4,0.6,0.5c0.2,0.1,0.5,0.1,0.7,0.1c0.5,0,0.9-0.1,1.2-0.4
	c0.3-0.3,0.5-0.6,0.5-1h1c-0.1,0.4-0.2,0.7-0.3,1c-0.2,0.3-0.4,0.5-0.6,0.7c-0.2,0.2-0.5,0.3-0.8,0.4C46.8,36.1,46.5,36.1,46.1,36.1
	z M50.2,30.7h0.9v4l2.7-4h0.9V36h-0.9v-4l-2.7,4h-0.9V30.7z M57.4,35.9c0.3,0.1,0.6,0.2,0.9,0.2c0.6,0,1-0.1,1.4-0.5
	c0.4-0.3,0.7-0.7,0.8-1.3h-0.9c-0.1,0.3-0.3,0.5-0.5,0.7c-0.2,0.2-0.5,0.2-0.8,0.2c-0.2,0-0.4,0-0.6-0.1c-0.2-0.1-0.3-0.2-0.5-0.3
	c-0.1-0.2-0.3-0.3-0.3-0.6c-0.1-0.2-0.1-0.5-0.1-0.9v-0.2c0-0.3,0-0.6,0.1-0.8c0.1-0.2,0.2-0.4,0.3-0.6c0.1-0.1,0.3-0.3,0.5-0.3
	c0.2-0.1,0.4-0.1,0.6-0.1c0.2,0,0.3,0,0.5,0.1c0.1,0,0.3,0.1,0.4,0.2c0.1,0.1,0.2,0.2,0.3,0.3c0.1,0.1,0.1,0.2,0.2,0.4h0.9
	c-0.1-0.2-0.1-0.5-0.3-0.7c-0.1-0.2-0.3-0.4-0.4-0.5c-0.2-0.2-0.4-0.3-0.6-0.4c-0.2-0.1-0.5-0.1-0.8-0.1c-0.3,0-0.6,0.1-0.9,0.2
	c-0.3,0.1-0.5,0.3-0.8,0.5c-0.2,0.2-0.4,0.5-0.5,0.8c-0.1,0.3-0.2,0.7-0.2,1.1v0.2c0,0.5,0.1,0.9,0.2,1.2c0.1,0.3,0.3,0.6,0.5,0.8
	C56.8,35.7,57.1,35.8,57.4,35.9z M62.9,31.5h-1.8v-0.8h4.5v0.8h-1.8V36h-0.9V31.5z M67.7,35.9c0.3,0.1,0.6,0.2,1,0.2
	c0.3,0,0.5,0,0.8-0.1c0.3-0.1,0.5-0.2,0.7-0.3c0.2-0.1,0.4-0.3,0.5-0.5c0.1-0.2,0.2-0.4,0.3-0.7h-0.9c-0.1,0.2-0.2,0.4-0.5,0.5
	c-0.2,0.1-0.5,0.2-0.9,0.2c-0.2,0-0.4,0-0.6-0.1c-0.2-0.1-0.4-0.2-0.5-0.3c-0.2-0.1-0.3-0.3-0.4-0.5c-0.1-0.2-0.1-0.5-0.1-0.8h4
	v-0.6c0-0.8-0.2-1.4-0.6-1.8c-0.4-0.4-1-0.6-1.8-0.6c-0.3,0-0.6,0.1-0.9,0.2c-0.3,0.1-0.6,0.3-0.8,0.5c-0.2,0.2-0.4,0.5-0.5,0.8
	c-0.1,0.3-0.2,0.7-0.2,1.1v0.2c0,0.5,0.1,0.9,0.2,1.2s0.3,0.6,0.6,0.9C67.2,35.7,67.4,35.8,67.7,35.9z M68.1,31.5
	c0.2-0.1,0.4-0.1,0.6-0.1c0.2,0,0.4,0,0.6,0.1c0.2,0.1,0.4,0.1,0.5,0.3c0.1,0.1,0.2,0.3,0.3,0.5c0.1,0.2,0.1,0.4,0.1,0.7H67
	c0-0.3,0-0.5,0.1-0.7c0.1-0.2,0.2-0.3,0.4-0.5C67.7,31.6,67.9,31.5,68.1,31.5z M72.3,30.7h0.9l1.9,3.3l1.9-3.3h0.9V36H77v-3.9
	l-1.6,2.7h-0.7l-1.6-2.7V36h-0.9V30.7z M80.2,36c0.2,0.1,0.5,0.1,0.8,0.1c0.4,0,0.8-0.1,1.1-0.3c0.3-0.2,0.5-0.4,0.7-0.7
	c0,0.2,0,0.3,0,0.5c0,0.1,0,0.3,0,0.4h0.8c0-0.2,0-0.4,0-0.6v-0.7v-2.1c0-0.7-0.2-1.2-0.6-1.5c-0.4-0.3-0.9-0.4-1.5-0.4
	c-0.3,0-0.6,0-0.8,0.1c-0.2,0.1-0.5,0.2-0.6,0.3c-0.2,0.1-0.3,0.3-0.4,0.5c-0.1,0.2-0.2,0.4-0.2,0.6h0.9c0-0.2,0.1-0.3,0.3-0.5
	c0.2-0.1,0.4-0.2,0.8-0.2c0.4,0,0.7,0.1,0.9,0.3c0.2,0.2,0.3,0.5,0.3,0.9V33H81c-0.6,0-1,0.1-1.3,0.3c-0.3,0.2-0.5,0.6-0.5,1.1
	c0,0.2,0,0.5,0.1,0.7c0.1,0.2,0.2,0.4,0.3,0.5C79.8,35.8,80,35.9,80.2,36z M81.8,35.2c-0.2,0.1-0.4,0.1-0.6,0.1
	c-0.4,0-0.7-0.1-0.8-0.2c-0.2-0.2-0.3-0.4-0.3-0.6c0-0.3,0.1-0.5,0.3-0.6c0.2-0.1,0.4-0.2,0.8-0.2h1.6V34c0,0.2,0,0.4-0.1,0.6
	c-0.1,0.2-0.2,0.3-0.3,0.4C82.1,35.1,81.9,35.2,81.8,35.2z M88.3,38.1c-0.1,0-0.2,0-0.3,0v-0.8c0.1,0,0.2,0,0.3,0s0.2,0,0.3,0
	c0.1,0,0.1-0.1,0.2-0.2c0.1-0.1,0.1-0.2,0.2-0.4c0.1-0.2,0.2-0.4,0.3-0.7L87,30.7h1l1.7,4.3l1.6-4.3h0.9l-2,5.3
	c-0.1,0.4-0.3,0.7-0.4,1c-0.1,0.3-0.3,0.5-0.4,0.7c-0.1,0.2-0.3,0.3-0.5,0.4C88.8,38.1,88.6,38.1,88.3,38.1z M97.6,30.7h-4.4V36h0.9
	v-4.5h2.6V36h0.9V30.7z M99.2,30.7h0.8v1c0.2-0.4,0.4-0.6,0.7-0.8c0.3-0.2,0.7-0.3,1.1-0.3c0.7,0,1.2,0.2,1.6,0.7
	c0.4,0.4,0.6,1.1,0.6,1.9v0.2c0,0.5-0.1,0.9-0.2,1.2c-0.1,0.3-0.3,0.6-0.4,0.8c-0.2,0.2-0.4,0.4-0.7,0.5c-0.3,0.1-0.6,0.2-0.9,0.2
	c-0.5,0-0.8-0.1-1.1-0.3c-0.3-0.2-0.5-0.5-0.7-0.8v3h-0.9V30.7z M101.7,35.3c0.2,0,0.4,0,0.6-0.1c0.2-0.1,0.3-0.2,0.5-0.4
	c0.1-0.2,0.2-0.4,0.3-0.6c0.1-0.2,0.1-0.5,0.1-0.8v-0.2c0-0.3,0-0.5-0.1-0.8c-0.1-0.2-0.2-0.4-0.3-0.6c-0.1-0.2-0.3-0.3-0.5-0.4
	c-0.2-0.1-0.4-0.1-0.6-0.1c-0.2,0-0.5,0-0.7,0.1c-0.2,0.1-0.4,0.2-0.5,0.3c-0.1,0.1-0.3,0.3-0.3,0.5c-0.1,0.2-0.1,0.4-0.1,0.6v0.8
	c0,0.2,0,0.5,0.1,0.7c0.1,0.2,0.2,0.4,0.3,0.5s0.3,0.3,0.5,0.3C101.2,35.3,101.4,35.3,101.7,35.3z M106.1,36
	c0.2,0.1,0.5,0.1,0.8,0.1c0.4,0,0.8-0.1,1.1-0.3c0.3-0.2,0.5-0.4,0.7-0.7c0,0.2,0,0.3,0,0.5c0,0.1,0,0.3,0,0.4h0.8
	c0-0.2,0-0.4,0-0.6v-0.7v-2.1c0-0.7-0.2-1.2-0.6-1.5c-0.4-0.3-0.9-0.4-1.5-0.4c-0.3,0-0.6,0-0.8,0.1c-0.2,0.1-0.5,0.2-0.6,0.3
	c-0.2,0.1-0.3,0.3-0.4,0.5c-0.1,0.2-0.2,0.4-0.2,0.6h0.9c0-0.2,0.1-0.3,0.3-0.5c0.2-0.1,0.4-0.2,0.8-0.2c0.4,0,0.7,0.1,0.9,0.3
	c0.2,0.2,0.3,0.5,0.3,0.9V33h-1.7c-0.6,0-1,0.1-1.3,0.3c-0.3,0.2-0.5,0.6-0.5,1.1c0,0.2,0,0.5,0.1,0.7c0.1,0.2,0.2,0.4,0.3,0.5
	C105.6,35.8,105.8,35.9,106.1,36z M107.6,35.2c-0.2,0.1-0.4,0.1-0.6,0.1c-0.4,0-0.7-0.1-0.8-0.2c-0.2-0.2-0.3-0.4-0.3-0.6
	c0-0.3,0.1-0.5,0.3-0.6c0.2-0.1,0.4-0.2,0.8-0.2h1.6V34c0,0.2,0,0.4-0.1,0.6c-0.1,0.2-0.2,0.3-0.3,0.4
	C107.9,35.1,107.8,35.2,107.6,35.2z M111,30.7h2.3c0.7,0,1.1,0.1,1.4,0.4c0.3,0.3,0.5,0.6,0.5,1c0,0.1,0,0.2-0.1,0.4
	c0,0.1-0.1,0.2-0.2,0.3c-0.1,0.1-0.2,0.2-0.3,0.3c-0.1,0.1-0.2,0.1-0.3,0.2c0.3,0.1,0.6,0.2,0.7,0.5c0.2,0.2,0.3,0.5,0.3,0.8
	c0,0.5-0.2,0.8-0.5,1.1c-0.3,0.3-0.8,0.4-1.4,0.4H111V30.7z M113.5,35.2c0.4,0,0.6-0.1,0.8-0.2s0.2-0.3,0.2-0.6
	c0-0.3-0.1-0.4-0.2-0.6c-0.2-0.1-0.4-0.2-0.8-0.2h-1.6v1.6H113.5z M113.3,32.9c0.4,0,0.6-0.1,0.8-0.2c0.2-0.1,0.2-0.3,0.2-0.5
	c0-0.2-0.1-0.4-0.2-0.5c-0.1-0.1-0.4-0.2-0.8-0.2h-1.4v1.5H113.3z M116.2,35.2c-0.1,0-0.1,0-0.1,0v0.9c0.1,0,0.2,0,0.3,0
	c0.3,0,0.5-0.1,0.7-0.2c0.2-0.1,0.4-0.3,0.5-0.6c0.1-0.3,0.2-0.7,0.3-1.2c0.1-0.5,0.1-1.1,0.1-1.8v-0.8h2V36h0.9v-5.3h-3.8v1.4
	c0,0.6,0,1.1-0.1,1.5c0,0.4-0.1,0.7-0.1,1c-0.1,0.2-0.2,0.4-0.3,0.5C116.5,35.2,116.4,35.2,116.2,35.2z M124.6,36.1
	c-0.3,0-0.7-0.1-1-0.2s-0.6-0.3-0.8-0.5c-0.2-0.2-0.4-0.5-0.6-0.9c-0.1-0.3-0.2-0.7-0.2-1.2v-0.2c0-0.4,0.1-0.8,0.2-1.1
	c0.1-0.3,0.3-0.6,0.5-0.8c0.2-0.2,0.5-0.4,0.8-0.5c0.3-0.1,0.6-0.2,0.9-0.2c0.8,0,1.4,0.2,1.8,0.6s0.6,1,0.6,1.8v0.6h-4
	c0,0.3,0.1,0.6,0.2,0.8c0.1,0.2,0.2,0.4,0.4,0.5c0.2,0.1,0.3,0.2,0.5,0.3c0.2,0.1,0.4,0.1,0.6,0.1c0.4,0,0.7-0.1,0.9-0.2
	c0.2-0.1,0.4-0.3,0.5-0.5h0.9c-0.1,0.3-0.2,0.5-0.3,0.7c-0.1,0.2-0.3,0.4-0.5,0.5c-0.2,0.1-0.4,0.2-0.7,0.3
	C125.2,36.1,124.9,36.1,124.6,36.1z M124.6,31.4c-0.2,0-0.4,0-0.6,0.1c-0.2,0.1-0.4,0.1-0.5,0.3c-0.1,0.1-0.3,0.3-0.4,0.5
	c-0.1,0.2-0.1,0.4-0.1,0.7h3.2c0-0.3-0.1-0.5-0.1-0.7c-0.1-0.2-0.2-0.3-0.3-0.5c-0.1-0.1-0.3-0.2-0.5-0.3
	C125,31.4,124.8,31.4,124.6,31.4z M129.1,30.7h-0.9V36h0.9v-2.3h2.7V36h0.9v-5.3h-0.9v2.2h-2.7V30.7z M134.3,30.7h0.9v4l2.7-4h0.9
	V36h-0.9v-4l-2.7,4h-0.9V30.7z M140.5,33.4c0.2,0.3,0.5,0.4,0.9,0.5L140,36h1l1.3-2h1.3v2h0.9v-5.3h-2.3c-0.7,0-1.2,0.1-1.5,0.4
	c-0.3,0.3-0.5,0.7-0.5,1.2C140.2,32.8,140.3,33.1,140.5,33.4z M141.3,33c-0.2-0.1-0.2-0.4-0.2-0.6c0-0.3,0.1-0.5,0.2-0.6
	c0.2-0.1,0.4-0.2,0.8-0.2h1.5v1.7h-1.5C141.8,33.2,141.5,33.1,141.3,33z M45.2,48.1c-0.6,0-1-0.1-1.4-0.5c-0.4-0.3-0.7-0.7-0.8-1.3
	h0.9c0.1,0.3,0.2,0.5,0.5,0.7c0.2,0.2,0.5,0.2,0.8,0.2c0.2,0,0.4,0,0.5-0.1c0.2-0.1,0.3-0.2,0.4-0.3c0.1-0.1,0.2-0.3,0.3-0.5
	c0.1-0.2,0.1-0.5,0.2-0.8h-2.1v-0.8h2.1c0-0.5-0.2-0.9-0.5-1.2c-0.3-0.2-0.6-0.4-1-0.4c-0.2,0-0.3,0-0.5,0.1c-0.1,0-0.3,0.1-0.4,0.2
	c-0.1,0.1-0.2,0.2-0.3,0.3c-0.1,0.1-0.1,0.2-0.2,0.3H43c0-0.2,0.1-0.5,0.2-0.7c0.1-0.2,0.3-0.4,0.4-0.5c0.2-0.2,0.4-0.3,0.6-0.4
	c0.3-0.1,0.5-0.1,0.8-0.1c0.3,0,0.7,0.1,0.9,0.2c0.3,0.1,0.5,0.3,0.8,0.5c0.2,0.2,0.4,0.5,0.5,0.8c0.1,0.3,0.2,0.7,0.2,1.1v0.2
	c0,0.5-0.1,0.9-0.2,1.2c-0.1,0.3-0.3,0.6-0.5,0.8c-0.2,0.2-0.5,0.4-0.8,0.5C45.9,48,45.5,48.1,45.2,48.1z M48.2,48.1
	c0.1,0,0.2,0,0.3,0c0.3,0,0.5-0.1,0.7-0.2c0.2-0.1,0.4-0.3,0.5-0.6c0.1-0.3,0.2-0.7,0.3-1.2c0.1-0.5,0.1-1.1,0.1-1.8v-0.8h2V48H53
	v-5.3h-3.8v1.4c0,0.6,0,1.1,0,1.5c0,0.4-0.1,0.7-0.1,1c-0.1,0.2-0.2,0.4-0.3,0.5c-0.1,0.1-0.2,0.1-0.4,0.1c-0.1,0-0.1,0-0.1,0V48.1z
	 M56.8,48.1c-0.3,0-0.7-0.1-1-0.2c-0.3-0.1-0.6-0.3-0.8-0.5c-0.2-0.2-0.4-0.5-0.6-0.9c-0.1-0.3-0.2-0.7-0.2-1.2v-0.2
	c0-0.4,0.1-0.8,0.2-1.1c0.1-0.3,0.3-0.6,0.5-0.8c0.2-0.2,0.5-0.4,0.8-0.5c0.3-0.1,0.6-0.2,0.9-0.2c0.8,0,1.4,0.2,1.8,0.6
	c0.4,0.4,0.6,1,0.6,1.8v0.6h-4c0,0.3,0,0.6,0.1,0.8c0.1,0.2,0.2,0.4,0.4,0.5c0.2,0.1,0.3,0.2,0.5,0.3c0.2,0.1,0.4,0.1,0.6,0.1
	c0.4,0,0.7-0.1,0.9-0.2c0.2-0.1,0.4-0.3,0.5-0.5H59c-0.1,0.3-0.1,0.5-0.3,0.7c-0.1,0.2-0.3,0.4-0.5,0.5c-0.2,0.1-0.4,0.2-0.7,0.3
	C57.3,48.1,57.1,48.1,56.8,48.1z M56.7,43.4c-0.2,0-0.4,0-0.6,0.1c-0.2,0.1-0.4,0.1-0.5,0.3c-0.1,0.1-0.3,0.3-0.4,0.5
	c-0.1,0.2-0.1,0.4-0.1,0.7h3.2c0-0.3-0.1-0.5-0.1-0.7c-0.1-0.2-0.2-0.3-0.3-0.5c-0.1-0.1-0.3-0.2-0.5-0.3
	C57.1,43.4,56.9,43.4,56.7,43.4z M61.2,42.7h-0.9V48h0.9v-2.3h0.7l2,2.3h1.1l-2.4-2.8l2.3-2.5h-1l-2,2.2h-0.7V42.7z M67.3,43.5h-1.8
	v-0.8H70v0.8h-1.8V48h-0.9V43.5z M71.8,42.7H71V50h0.9v-3c0.2,0.3,0.4,0.5,0.7,0.8c0.3,0.2,0.7,0.3,1.1,0.3c0.3,0,0.6-0.1,0.9-0.2
	c0.3-0.1,0.5-0.3,0.7-0.5c0.2-0.2,0.3-0.5,0.4-0.8c0.1-0.3,0.2-0.7,0.2-1.2v-0.2c0-0.9-0.2-1.5-0.6-1.9c-0.4-0.4-0.9-0.7-1.6-0.7
	c-0.4,0-0.8,0.1-1.1,0.3c-0.3,0.2-0.6,0.5-0.7,0.8V42.7z M74.1,47.2c-0.2,0.1-0.4,0.1-0.6,0.1c-0.2,0-0.5,0-0.7-0.1
	c-0.2-0.1-0.4-0.2-0.5-0.3c-0.1-0.1-0.2-0.3-0.3-0.5c-0.1-0.2-0.1-0.4-0.1-0.7v-0.8c0-0.2,0-0.4,0.1-0.6c0.1-0.2,0.2-0.3,0.3-0.5
	c0.1-0.1,0.3-0.2,0.5-0.3c0.2-0.1,0.4-0.1,0.7-0.1c0.2,0,0.4,0,0.6,0.1c0.2,0.1,0.3,0.2,0.5,0.4c0.1,0.2,0.2,0.3,0.3,0.6
	c0.1,0.2,0.1,0.5,0.1,0.8v0.2c0,0.3,0,0.6-0.1,0.8c-0.1,0.2-0.2,0.4-0.3,0.6C74.4,47,74.3,47.1,74.1,47.2z M79.3,48.1
	c-0.3,0-0.7-0.1-1-0.2c-0.3-0.1-0.6-0.3-0.8-0.5c-0.2-0.2-0.4-0.5-0.6-0.8s-0.2-0.7-0.2-1.2v-0.2c0-0.4,0.1-0.8,0.2-1.1
	c0.1-0.3,0.3-0.6,0.6-0.8c0.2-0.2,0.5-0.4,0.8-0.5c0.3-0.1,0.6-0.2,1-0.2s0.7,0.1,1,0.2c0.3,0.1,0.6,0.3,0.8,0.5
	c0.2,0.2,0.4,0.5,0.6,0.8c0.1,0.3,0.2,0.7,0.2,1.1v0.2c0,0.5-0.1,0.9-0.2,1.2c-0.1,0.3-0.3,0.6-0.6,0.8c-0.2,0.2-0.5,0.4-0.8,0.5
	C80,48,79.7,48.1,79.3,48.1z M79.3,47.3c0.2,0,0.4,0,0.6-0.1c0.2-0.1,0.4-0.2,0.5-0.3c0.2-0.2,0.3-0.3,0.4-0.6
	c0.1-0.2,0.1-0.5,0.1-0.9v-0.2c0-0.3,0-0.6-0.1-0.8c-0.1-0.2-0.2-0.4-0.4-0.6c-0.2-0.1-0.3-0.3-0.5-0.3s-0.4-0.1-0.6-0.1
	s-0.4,0-0.6,0.1s-0.4,0.2-0.5,0.3c-0.2,0.1-0.3,0.3-0.4,0.6c-0.1,0.2-0.1,0.5-0.1,0.8v0.2c0,0.3,0,0.6,0.1,0.9
	c0.1,0.2,0.2,0.4,0.4,0.6c0.2,0.1,0.3,0.3,0.5,0.3C78.9,47.3,79.1,47.3,79.3,47.3z M84,42.7h-0.9V48H84v-2.3h2.7V48h0.9v-5.3h-0.9
	v2.2H84V42.7z M89.2,42.7h0.9v2.2h2.7v-2.2h0.9V48h-0.9v-2.3h-2.7V48h-0.9V42.7z M96.5,47.9c0.3,0.1,0.6,0.2,1,0.2
	c0.3,0,0.7-0.1,1-0.2c0.3-0.1,0.6-0.3,0.8-0.5c0.2-0.2,0.4-0.5,0.6-0.8c0.1-0.3,0.2-0.7,0.2-1.2v-0.2c0-0.4-0.1-0.8-0.2-1.1
	c-0.1-0.3-0.3-0.6-0.6-0.8c-0.2-0.2-0.5-0.4-0.8-0.5c-0.3-0.1-0.6-0.2-1-0.2c-0.3,0-0.7,0.1-1,0.2c-0.3,0.1-0.6,0.3-0.8,0.5
	c-0.2,0.2-0.4,0.5-0.6,0.8C95,44.4,95,44.8,95,45.2v0.2c0,0.5,0.1,0.9,0.2,1.2s0.3,0.6,0.6,0.8C96,47.7,96.2,47.8,96.5,47.9z
	 M98.1,47.2c-0.2,0.1-0.4,0.1-0.6,0.1s-0.4,0-0.6-0.1c-0.2-0.1-0.4-0.2-0.5-0.3c-0.2-0.2-0.3-0.3-0.4-0.6c-0.1-0.2-0.1-0.5-0.1-0.9
	v-0.2c0-0.3,0-0.6,0.1-0.8c0.1-0.2,0.2-0.4,0.4-0.6c0.2-0.1,0.3-0.3,0.5-0.3c0.2-0.1,0.4-0.1,0.6-0.1s0.4,0,0.6,0.1s0.4,0.2,0.5,0.3
	c0.2,0.1,0.3,0.3,0.4,0.6c0.1,0.2,0.1,0.5,0.1,0.8v0.2c0,0.3,0,0.6-0.1,0.9c-0.1,0.2-0.2,0.4-0.4,0.6C98.5,47,98.3,47.1,98.1,47.2z
	 M101.3,42.7h0.9v4l2.7-4h0.9V48h-0.9v-4l-2.7,4h-0.9V42.7z M103.5,42.1c-0.5,0-0.9-0.1-1.1-0.3c-0.2-0.2-0.4-0.6-0.4-1h0.9
	c0,0.5,0.2,0.7,0.6,0.7c0.4,0,0.7-0.2,0.7-0.7h0.8c0,0.4-0.1,0.7-0.4,1C104.4,41.9,104.1,42.1,103.5,42.1z M110.1,47.7
	c0.4,0.3,0.9,0.4,1.6,0.4c0.4,0,0.7,0,0.9-0.1c0.3-0.1,0.5-0.2,0.7-0.3c0.2-0.1,0.3-0.3,0.4-0.5c0.1-0.2,0.1-0.4,0.1-0.6
	c0-0.3-0.1-0.5-0.2-0.8c-0.1-0.2-0.4-0.4-0.8-0.5c0.3-0.1,0.5-0.3,0.6-0.4c0.1-0.2,0.2-0.4,0.2-0.7c0-0.2,0-0.4-0.1-0.6
	c-0.1-0.2-0.2-0.3-0.4-0.5c-0.2-0.1-0.4-0.2-0.6-0.3c-0.2-0.1-0.5-0.1-0.9-0.1c-0.3,0-0.6,0-0.8,0.1c-0.2,0.1-0.5,0.2-0.6,0.3
	c-0.2,0.1-0.3,0.3-0.4,0.5c-0.1,0.2-0.2,0.4-0.2,0.6h0.9c0-0.2,0.2-0.4,0.3-0.5c0.2-0.1,0.5-0.2,0.9-0.2c0.4,0,0.7,0.1,0.8,0.2
	c0.2,0.1,0.3,0.3,0.3,0.5c0,0.3-0.1,0.5-0.2,0.6c-0.2,0.1-0.4,0.2-0.8,0.2h-0.8v0.7h0.9c0.4,0,0.7,0.1,0.9,0.2
	c0.2,0.1,0.3,0.3,0.3,0.6c0,0.2-0.1,0.4-0.3,0.6c-0.2,0.2-0.5,0.2-1,0.2c-0.4,0-0.7-0.1-0.9-0.2c-0.2-0.1-0.4-0.3-0.4-0.6h-0.9
	C109.5,47,109.7,47.4,110.1,47.7z M116.6,48.1c-0.3,0-0.6,0-0.8-0.1c-0.2-0.1-0.4-0.2-0.6-0.3c-0.2-0.1-0.3-0.3-0.3-0.5
	c-0.1-0.2-0.1-0.4-0.1-0.7c0-0.5,0.2-0.9,0.5-1.1c0.3-0.2,0.8-0.3,1.3-0.3h1.7v-0.4c0-0.5-0.1-0.8-0.3-0.9c-0.2-0.2-0.5-0.3-0.9-0.3
	c-0.4,0-0.7,0.1-0.8,0.2c-0.2,0.1-0.3,0.3-0.3,0.5h-0.9c0-0.2,0.1-0.4,0.2-0.6c0.1-0.2,0.2-0.3,0.4-0.5c0.2-0.1,0.4-0.2,0.6-0.3
	c0.2-0.1,0.5-0.1,0.8-0.1c0.6,0,1.1,0.2,1.5,0.5c0.4,0.3,0.6,0.8,0.6,1.5v2.1v0.7c0,0.2,0,0.4,0.1,0.6h-0.8c0-0.2,0-0.3,0-0.4
	c0-0.1,0-0.3,0-0.5c-0.1,0.3-0.4,0.5-0.7,0.7C117.4,48,117.1,48.1,116.6,48.1z M116.8,47.3c0.2,0,0.4,0,0.6-0.1
	c0.2-0.1,0.3-0.1,0.5-0.3c0.1-0.1,0.2-0.3,0.3-0.4c0.1-0.2,0.1-0.3,0.1-0.6v-0.4h-1.6c-0.3,0-0.6,0.1-0.8,0.2
	c-0.2,0.1-0.3,0.3-0.3,0.6c0,0.2,0.1,0.4,0.3,0.6C116.2,47.2,116.4,47.3,116.8,47.3z M125.1,42.7h-4.4V48h0.9v-4.5h2.6V48h0.9V42.7z
	 M126.7,42.7h0.9v4l2.7-4h0.9V48h-0.9v-4l-2.7,4h-0.9V42.7z M133.9,47.9c0.3,0.1,0.6,0.2,0.9,0.2c0.6,0,1-0.1,1.4-0.5
	c0.4-0.3,0.7-0.7,0.8-1.3h-0.9c-0.1,0.3-0.3,0.5-0.5,0.7c-0.2,0.2-0.5,0.2-0.8,0.2c-0.2,0-0.4,0-0.6-0.1c-0.2-0.1-0.3-0.2-0.5-0.3
	c-0.1-0.2-0.3-0.3-0.3-0.6c-0.1-0.2-0.1-0.5-0.1-0.9v-0.2c0-0.3,0-0.6,0.1-0.8c0.1-0.2,0.2-0.4,0.3-0.6c0.1-0.1,0.3-0.3,0.5-0.3
	c0.2-0.1,0.4-0.1,0.6-0.1c0.2,0,0.3,0,0.5,0.1c0.1,0,0.3,0.1,0.4,0.2c0.1,0.1,0.2,0.2,0.3,0.3c0.1,0.1,0.1,0.2,0.2,0.3h0.9
	c-0.1-0.2-0.1-0.5-0.3-0.7c-0.1-0.2-0.3-0.4-0.4-0.5c-0.2-0.2-0.4-0.3-0.6-0.4c-0.2-0.1-0.5-0.1-0.8-0.1c-0.3,0-0.6,0.1-0.9,0.2
	c-0.3,0.1-0.5,0.3-0.8,0.5c-0.2,0.2-0.4,0.5-0.5,0.8c-0.1,0.3-0.2,0.7-0.2,1.1v0.2c0,0.5,0.1,0.9,0.2,1.2c0.1,0.3,0.3,0.6,0.5,0.8
	C133.4,47.7,133.6,47.8,133.9,47.9z M138.3,42.7h0.9v2h1.3c0.7,0,1.2,0.1,1.5,0.4c0.3,0.3,0.5,0.7,0.5,1.2c0,0.5-0.2,0.9-0.5,1.2
	c-0.3,0.3-0.8,0.4-1.5,0.4h-2.1V42.7z M140.4,47.2c0.4,0,0.7-0.1,0.9-0.2c0.2-0.1,0.3-0.4,0.3-0.7c0-0.3-0.1-0.5-0.3-0.6
	c-0.2-0.1-0.5-0.2-0.9-0.2h-1.2v1.7H140.4z M144.4,42.7h-0.9V48h0.9v-2.3h0.7c0,0.4,0.1,0.8,0.2,1.1c0.1,0.3,0.3,0.5,0.5,0.8
	c0.2,0.2,0.5,0.4,0.7,0.5c0.3,0.1,0.6,0.1,0.9,0.1c0.3,0,0.7-0.1,0.9-0.2c0.3-0.1,0.6-0.3,0.8-0.5c0.2-0.2,0.4-0.5,0.5-0.8
	c0.1-0.3,0.2-0.7,0.2-1.2v-0.2c0-0.4-0.1-0.8-0.2-1.1c-0.1-0.3-0.3-0.6-0.5-0.8c-0.2-0.2-0.5-0.4-0.8-0.5c-0.3-0.1-0.6-0.2-0.9-0.2
	c-0.3,0-0.6,0-0.9,0.2c-0.3,0.1-0.5,0.2-0.7,0.4c-0.2,0.2-0.4,0.4-0.5,0.7c-0.1,0.3-0.2,0.6-0.3,1h-0.7V42.7z M148.1,47.2
	c-0.2,0.1-0.4,0.1-0.6,0.1c-0.2,0-0.4,0-0.6-0.1c-0.2-0.1-0.4-0.2-0.5-0.3c-0.1-0.2-0.3-0.3-0.3-0.6c-0.1-0.2-0.1-0.5-0.1-0.9v-0.2
	c0-0.3,0-0.6,0.1-0.8c0.1-0.2,0.2-0.4,0.3-0.6c0.1-0.1,0.3-0.3,0.5-0.3c0.2-0.1,0.4-0.1,0.6-0.1c0.2,0,0.4,0,0.6,0.1
	s0.3,0.2,0.5,0.3c0.1,0.1,0.3,0.3,0.3,0.6c0.1,0.2,0.1,0.5,0.1,0.8v0.2c0,0.3,0,0.6-0.1,0.9c-0.1,0.2-0.2,0.4-0.3,0.6
	C148.5,47,148.3,47.1,148.1,47.2z"/>
<linearGradient id="SVGID_1_" gradientUnits="userSpaceOnUse" x1="20.0262" y1="52" x2="20.0262" y2="4" gradientTransform="matrix(1 0 0 -1 0 52)">
	<stop  offset="0" style="stop-color:#195A9B"/>
	<stop  offset="1" style="stop-color:#364975"/>
</linearGradient>
<path class="st1" d="M19.8,0l1.5,1.8l-1.5,1.9l-1.5-1.9L19.8,0z M19.9,9.4l-3,0.6c0,0-1.6-2.2-1.9-2.9c-1-2.4,0.8-3.4,2.6-3.4
	l2.3,2.7l2.3-2.7c1.8,0,3.5,1,2.6,3.4c-0.3,0.7-1.9,2.9-1.9,2.9C22.4,10,19.9,9.4,19.9,9.4z M28,13.2c1.5,0.6,2.8-0.3,4-1.4
	c-1.5,2.2-2.9,2.4-3.6,2.4c0.1,0.4,0,0.9-0.1,1.3c-0.6-1.3-1.5-1.4-2.6-1.2c0.5-1,1.5-1.2,2-1.2l0.1,0c0,0,0,0,0.1,0
	C27.9,13.2,27.9,13.2,28,13.2C27.9,13.2,27.9,13.2,28,13.2C28,13.2,28,13.2,28,13.2C28,13.2,28,13.2,28,13.2
	C28,13.2,28,13.2,28,13.2z M11.6,15.7c0.6-1.3,1.5-1.4,2.6-1.3c-0.5-1-1.5-1.2-2-1.2l-0.1,0c0,0,0,0-0.1,0c0,0,0,0-0.1,0
	c0,0,0,0,0,0c0,0,0,0,0,0c0,0,0,0,0,0c-1.5,0.6-2.8-0.3-4-1.3c1.6,2.2,2.9,2.4,3.6,2.4C11.4,14.8,11.5,15.2,11.6,15.7z M19.7,38.2
	c-1.4,0.2-5.3,0.7-6.1,1.8c0,0-0.1,0.1-0.1,0.1c0,0.1-0.1,0.2-0.2,0.2c-0.8-0.1-2.3,0.3-3.3,0.6C9.7,40.9,9.5,41,9.4,41
	c0,0,0.6,1.4,0.6,1.5c0,0.1,0.1,0.2,0,0.3c0,0.1-0.2,0.1-0.3,0.1c-0.1,0-0.2,0-0.2,0.1c-0.1,0-0.1-0.1-0.1-0.1l-0.6-1.4
	c-0.3,0-0.6,0-0.9-0.2c-0.4-0.3-0.6-0.7-0.5-1.2c0.1-0.3,0.2-0.5,0.4-0.7c-0.9-2.1-1.4-3.1-1.7-3.7c-0.2-0.5-0.3-0.6-0.3-0.7l-0.2,0
	C5.2,35,4.9,34.6,5,34.4c-0.3,0.1-1.4-0.2-1.3-1.4c0.2,0.1,0.6,0.3,0.6,0.3s-0.2-1,0.3-1.3c0.6-0.3,1.2,0.5,1.2,0.5S6,32,6.1,31.8
	c1,0.7,0.6,1.7,0.3,1.9c0.2,0,0.3,0.5,0,0.8l-0.1,0c0.1,0.1,0.2,0.3,0.9,1.9c0.3,0.6,0.7,1.5,1.2,2.6c0.2,0,0.3,0,0.4,0.1
	c0.3,0.1,0.6,0.4,0.7,0.7c0.7,0.4,1.9,0.1,3-0.6c0,0,0.9-0.5,2.1-1.2h0l4.5-2.7L19.7,38.2z M20.3,39.3l-0.2,1.1l-0.2-1.1
	c-1.5,0.2-5.3,0.8-5.7,2.2c-0.2,0.6,0.5,1.3,1.2,1.5c0,0,0,0,0,0c0,0,0,0,0,0c0.3-1.7,2.3-2.2,3.7-2.5c-1.4,0.6-2.8,1.8-3,3.2
	c-0.1,0.7,0.6,1.4,1.3,1.5c0,0,0.1,0,0.1-0.1c0.1-1.5,1-2.6,1.7-3.4l0,0c0-0.1,0.1-0.1,0.1-0.2c-0.1,0.3-0.2,0.6-0.2,0.6l0,0
	c-0.1,0.3-0.5,1.3-0.7,2.4c-0.1,0.4-0.1,0.8-0.2,1.2c0,0.8,1.5,2.3,1.7,2.4h0c0.2-0.1,1.7-1.6,1.7-2.4c0-0.4-0.1-0.8-0.2-1.2
	c-0.2-1-0.5-2-0.6-2.3c0,0,0-0.1,0-0.1c0,0-0.1-0.2-0.2-0.6c0,0.1,0.1,0.1,0.2,0.2l0,0c0.6,0.7,1.6,1.8,1.6,3.4c0,0,0,0.1,0.1,0.1
	c0.7-0.2,1.4-0.8,1.3-1.5c-0.2-1.3-1.7-2.5-3-3.2c1.4,0.3,3.4,0.7,3.7,2.5c0,0,0,0,0,0c0,0,0,0,0,0c0.8-0.2,1.4-0.9,1.2-1.5
	C25.5,40.1,21.9,39.5,20.3,39.3z M20.5,38.2l0.5-2.8l0.7,0.4c1.1,0.6,2.6,1.5,3.7,2.2l0,0l0,0c0.8,0.4,1.3,0.8,1.3,0.8
	c0.4,0.2,1.6,0.5,2.2,0.3c0,0,0-0.1,0-0.1c0-0.5,0-1.2,0.8-1.8l1.3,1.3l1.3-1.3c0,0,1,0.8,0.9,1.9c-0.1,1.1-0.8,2-2.2,2
	c-0.8,0-1.2-0.3-1.7-0.8l-0.1-0.1c-0.7-0.4-2.1-0.4-3.4-0.1c-0.1,0-0.2,0-0.2-0.1c0,0,0-0.1-0.1-0.1C24.9,38.9,21.8,38.2,20.5,38.2z
	 M21.3,34.2l6.5,3.9c0-0.2-0.1-0.4-0.1-0.6c0-1.9,1.5-3.4,3.4-3.4s3.4,1.5,3.4,3.4c0,0.6-0.3,1.5-0.4,1.6c0.1-0.1,3.1-0.8,3.1-0.8
	s2.7,2.4,2.8,2.4c0-0.1,0.1-0.2,0-0.5c-0.1-0.2-0.2-0.5-0.3-0.8c-0.5-1.3-1.2-3.5-1.2-5.7c0-3.3,0.3-5.8,0.3-5.8h0
	c1.1-6.1-3.6-11.7-7.6-12c-1-0.2-2.1,0.3-2.7,0.7c-0.6,0.4-0.8,0.9-1,1.4l0,0c0,0.1-0.1,0.2-0.1,0.3c-0.1,0.2-0.3,0.4-0.6,0.7
	c-0.7,0.3-1.2,0.2-1.5,0.1c-2.9-1.7-0.8-7.2,2.7-7c1.4,0.1,1.4,0.4,1.4,0.6c0,0,0,0.1,0,0.1c0.4-1.2-0.4-2.7-1.7-2.5
	c-1.3-1.3-2.4-0.6-3.6,0.1c-1,0.6-2.1,1.3-3.4,1.1c0.1,0.6,0.6,1.4,1.4,1.5c-0.3,0.5-1.3,2.3-1.7,3.3l1.6,7.6l5.5-3.7l-3.7,5.6
	l9,1.8l-9,1.9l3.8,5.6l-5.5-3.7L21.3,34.2z M19.8,16.3c-0.5-1.1-1.4-2.7-1.8-3.2c0.8-0.2,1.3-0.9,1.4-1.5c-1.4,0.2-2.5-0.5-3.5-1.1
	c-1.2-0.8-2.3-1.4-3.6-0.1c-1.3-0.2-2.1,1.4-1.7,2.5c0,0,0-0.1,0-0.1c0-0.2,0-0.5,1.4-0.6c3.3-0.2,5.4,4.5,3.4,6.5c0,0,0,0,0,0
	s-0.8,0.8-2,0.3c-0.4-0.2-0.5-0.5-0.6-0.7c-0.1-0.1-0.1-0.2-0.2-0.4c-0.2-0.4-0.4-0.9-1-1.3c-0.6-0.4-1.7-0.8-2.7-0.7
	c-4,0.3-8.7,5.9-7.6,12h0c0.1,0.4,0.3,2.7,0.3,5.7c0,2.2-0.8,4.4-1.2,5.7c-0.3,0.8-0.5,1.3-0.3,1.3h0c0,0,2.8-2.4,2.8-2.4
	S6.6,39,6.7,39c0,0,0,0,0,0h0c0,0,0,0,0,0l-1.5-3.1c-1.3-0.1-2.3-1.2-2.3-2.5c0-1.4,1.1-2.5,2.5-2.5c1.4,0,2.5,1.1,2.5,2.5
	c0,0.6-0.2,1.1-0.6,1.6l1.8,3.6c1.1-0.2,2.1-0.3,3.1-0.4l6.7-4l-0.5-2.6l-5.5,3.7l3.8-5.7l-9.1-1.8l9-1.9l-3.7-5.5l5.5,3.5
	L19.8,16.3z M31.9,36.1l-0.8,0.8l-0.8-0.8l0.8-0.9L31.9,36.1z"/>
<linearGradient id="SVGID_2_" gradientUnits="userSpaceOnUse" x1="20.1458" y1="31.418" x2="20.1458" y2="16.6828" gradientTransform="matrix(1 0 0 -1 0 52)">
	<stop  offset="0" style="stop-color:#195A9B"/>
	<stop  offset="1" style="stop-color:#364975"/>
</linearGradient>
<path class="st2" d="M18.9,28.8L18.9,28.8h2.7l0,0l-1.4-2.3L18.9,28.8z M27.5,27.9l-5.2-1l2.2-3.3l-3.2,2.2l-1.1-5.2l-1,5.1
	l-3.2-2.1l2.2,3.2L12.8,28l5.3,1.1l-2.2,3.4l3.2-2.2l1.1,5.1l1-5.2l3.3,2.1L22.3,29L27.5,27.9z M20.1,29.9c-1.1,0-1.9-0.9-1.9-1.9
	c0-1.1,0.9-1.9,1.9-1.9c1.1,0,1.9,0.9,1.9,1.9C22.1,29,21.2,29.9,20.1,29.9z"/>
</svg>
