<?xml version="1.0" encoding="utf-8"?>
<!-- Generator: Adobe Illustrator 23.0.3, SVG Export Plug-In . SVG Version: 6.00 Build 0)  -->
<svg version="1.1" id="Слой_1" xmlns="http://www.w3.org/2000/svg" xmlns:xlink="http://www.w3.org/1999/xlink" x="0px" y="0px"
	 viewBox="0 0 40 48.1" style="enable-background:new 0 0 40 48.1;" xml:space="preserve">
<style type="text/css">
	.st0{fill-rule:evenodd;clip-rule:evenodd;fill:url(#SVGID_1_);}
	.st1{fill:url(#SVGID_2_);}
</style>
<linearGradient id="SVGID_1_" gradientUnits="userSpaceOnUse" x1="20.0125" y1="740" x2="20.0125" y2="788" gradientTransform="matrix(1 0 0 1 0 -740)">
	<stop  offset="0" style="stop-color:#195A9B"/>
	<stop  offset="1" style="stop-color:#364975"/>
</linearGradient>
<path class="st0" d="M19.8,0l1.5,1.8l-1.5,1.9l-1.5-1.9L19.8,0z M19.9,9.4l-3,0.6c0,0-1.6-2.2-1.9-2.9c-1-2.4,0.8-3.4,2.6-3.4
	l2.3,2.7l2.3-2.7c1.8,0,3.5,1,2.6,3.4c-0.3,0.7-1.9,2.9-1.9,2.9C22.4,10,19.9,9.4,19.9,9.4z M28,13.2c1.5,0.6,2.8-0.3,4-1.4
	c-1.5,2.2-2.9,2.4-3.6,2.4c0.1,0.4,0,0.9-0.1,1.3c-0.6-1.3-1.5-1.4-2.6-1.2c0.5-1,1.5-1.2,2-1.2h0.1c0,0,0,0,0.1,0
	C27.9,13.2,27.9,13.2,28,13.2C27.9,13.2,27.9,13.2,28,13.2L28,13.2L28,13.2L28,13.2z M11.6,15.7c0.6-1.3,1.5-1.4,2.6-1.3
	c-0.5-1-1.5-1.2-2-1.2h-0.1c0,0,0,0-0.1,0c0,0,0,0-0.1,0l0,0l0,0l0,0c-1.5,0.6-2.8-0.3-4-1.3c1.6,2.2,2.9,2.4,3.6,2.4
	C11.4,14.8,11.5,15.2,11.6,15.7z M19.7,38.2c-1.4,0.2-5.3,0.7-6.1,1.8l-0.1,0.1c0,0.1-0.1,0.2-0.2,0.2c-0.8-0.1-2.3,0.3-3.3,0.6
	c-0.3,0-0.5,0.1-0.6,0.1c0,0,0.6,1.4,0.6,1.5s0.1,0.2,0,0.3c0,0.1-0.2,0.1-0.3,0.1s-0.2,0-0.2,0.1c-0.1,0-0.1-0.1-0.1-0.1l-0.6-1.4
	c-0.3,0-0.6,0-0.9-0.2c-0.4-0.3-0.6-0.7-0.5-1.2c0.1-0.3,0.2-0.5,0.4-0.7c-0.9-2.1-1.4-3.1-1.7-3.7c-0.2-0.5-0.3-0.6-0.3-0.7H5.6
	c-0.4,0-0.7-0.4-0.6-0.6c-0.3,0.1-1.4-0.2-1.3-1.4c0.2,0.1,0.6,0.3,0.6,0.3s-0.2-1,0.3-1.3c0.6-0.3,1.2,0.5,1.2,0.5S6,32,6.1,31.8
	c1,0.7,0.6,1.7,0.3,1.9c0.2,0,0.3,0.5,0,0.8H6.3c0.1,0.1,0.2,0.3,0.9,1.9C7.5,37,7.9,37.9,8.4,39c0.2,0,0.3,0,0.4,0.1
	c0.3,0.1,0.6,0.4,0.7,0.7c0.7,0.4,1.9,0.1,3-0.6c0,0,0.9-0.5,2.1-1.2l0,0l4.5-2.7L19.7,38.2z M20.3,39.3l-0.2,1.1l-0.2-1.1
	c-1.5,0.2-5.3,0.8-5.7,2.2c-0.2,0.6,0.5,1.3,1.2,1.5l0,0l0,0c0.3-1.7,2.3-2.2,3.7-2.5c-1.4,0.6-2.8,1.8-3,3.2
	c-0.1,0.7,0.6,1.4,1.3,1.5c0,0,0.1,0,0.1-0.1c0.1-1.5,1-2.6,1.7-3.4l0,0c0-0.1,0.1-0.1,0.1-0.2c-0.1,0.3-0.2,0.6-0.2,0.6l0,0
	c-0.1,0.3-0.5,1.3-0.7,2.4c-0.1,0.4-0.1,0.8-0.2,1.2c0,0.8,1.5,2.3,1.7,2.4l0,0c0.2-0.1,1.7-1.6,1.7-2.4c0-0.4-0.1-0.8-0.2-1.2
	c-0.2-1-0.5-2-0.6-2.3v-0.1c0,0-0.1-0.2-0.2-0.6c0,0.1,0.1,0.1,0.2,0.2l0,0c0.6,0.7,1.6,1.8,1.6,3.4c0,0,0,0.1,0.1,0.1
	c0.7-0.2,1.4-0.8,1.3-1.5c-0.2-1.3-1.7-2.5-3-3.2c1.4,0.3,3.4,0.7,3.7,2.5l0,0l0,0c0.8-0.2,1.4-0.9,1.2-1.5
	C25.5,40.1,21.9,39.5,20.3,39.3z M20.5,38.2l0.5-2.8l0.7,0.4c1.1,0.6,2.6,1.5,3.7,2.2l0,0l0,0c0.8,0.4,1.3,0.8,1.3,0.8
	c0.4,0.2,1.6,0.5,2.2,0.3V39c0-0.5,0-1.2,0.8-1.8l1.3,1.3l1.3-1.3c0,0,1,0.8,0.9,1.9c-0.1,1.1-0.8,2-2.2,2c-0.8,0-1.2-0.3-1.7-0.8
	l-0.1-0.1c-0.7-0.4-2.1-0.4-3.4-0.1c-0.1,0-0.2,0-0.2-0.1c0,0,0-0.1-0.1-0.1C24.9,38.9,21.8,38.2,20.5,38.2z M21.3,34.2l6.5,3.9
	c0-0.2-0.1-0.4-0.1-0.6c0-1.9,1.5-3.4,3.4-3.4c1.9,0,3.4,1.5,3.4,3.4c0,0.6-0.3,1.5-0.4,1.6c0.1-0.1,3.1-0.8,3.1-0.8
	s2.7,2.4,2.8,2.4c0-0.1,0.1-0.2,0-0.5c-0.1-0.2-0.2-0.5-0.3-0.8c-0.5-1.3-1.2-3.5-1.2-5.7c0-3.3,0.3-5.8,0.3-5.8l0,0
	c1.1-6.1-3.6-11.7-7.6-12c-1-0.2-2.1,0.3-2.7,0.7c-0.6,0.4-0.8,0.9-1,1.4l0,0c0,0.1-0.1,0.2-0.1,0.3c-0.1,0.2-0.3,0.4-0.6,0.7
	c-0.7,0.3-1.2,0.2-1.5,0.1c-2.9-1.7-0.8-7.2,2.7-7c1.4,0.1,1.4,0.4,1.4,0.6v0.1c0.4-1.2-0.4-2.7-1.7-2.5c-1.3-1.3-2.4-0.6-3.6,0.1
	c-1,0.6-2.1,1.3-3.4,1.1c0.1,0.6,0.6,1.4,1.4,1.5c-0.3,0.5-1.3,2.3-1.7,3.3l1.6,7.6l5.5-3.7l-3.7,5.6l9,1.8l-9,1.9l3.8,5.6l-5.5-3.7
	L21.3,34.2z M19.8,16.3c-0.5-1.1-1.4-2.7-1.8-3.2c0.8-0.2,1.3-0.9,1.4-1.5c-1.4,0.2-2.5-0.5-3.5-1.1c-1.2-0.8-2.3-1.4-3.6-0.1
	c-1.3-0.2-2.1,1.4-1.7,2.5v-0.1c0-0.2,0-0.5,1.4-0.6c3.3-0.2,5.4,4.5,3.4,6.5l0,0c0,0-0.8,0.8-2,0.3c-0.4-0.2-0.5-0.5-0.6-0.7
	c-0.1-0.1-0.1-0.2-0.2-0.4c-0.2-0.4-0.4-0.9-1-1.3s-1.7-0.8-2.7-0.7c-4,0.3-8.7,5.9-7.6,12l0,0c0.1,0.4,0.3,2.7,0.3,5.7
	c0,2.2-0.8,4.4-1.2,5.7c-0.3,0.8-0.5,1.3-0.3,1.3l0,0l2.8-2.4c0,0,3.7,0.8,3.8,0.8l0,0l0,0l0,0l-1.5-3.1c-1.3-0.1-2.3-1.2-2.3-2.5
	c0-1.4,1.1-2.5,2.5-2.5s2.5,1.1,2.5,2.5c0,0.6-0.2,1.1-0.6,1.6l1.8,3.6c1.1-0.2,2.1-0.3,3.1-0.4l6.7-4l-0.5-2.6l-5.5,3.7l3.8-5.7
	l-9.1-1.8l9-1.9l-3.7-5.5l5.5,3.5L19.8,16.3z M31.9,36.1l-0.8,0.8l-0.8-0.8l0.8-0.9L31.9,36.1z"/>
<linearGradient id="SVGID_2_" gradientUnits="userSpaceOnUse" x1="20.1305" y1="760.582" x2="20.1305" y2="775.3172" gradientTransform="matrix(1 0 0 1 0 -740)">
	<stop  offset="0" style="stop-color:#195A9B"/>
	<stop  offset="1" style="stop-color:#364975"/>
</linearGradient>
<path class="st1" d="M18.9,28.8L18.9,28.8h2.7l0,0l-1.4-2.3L18.9,28.8z M27.5,27.9l-5.2-1l2.2-3.3l-3.2,2.2l-1.1-5.2l-1,5.1L16,23.6
	l2.2,3.2L12.8,28l5.3,1.1l-2.2,3.4l3.2-2.2l1.1,5.1l1-5.2l3.3,2.1L22.3,29L27.5,27.9z M20.1,29.9c-1.1,0-1.9-0.9-1.9-1.9
	c0-1.1,0.9-1.9,1.9-1.9c1.1,0,1.9,0.9,1.9,1.9C22.1,29,21.2,29.9,20.1,29.9z"/>
</svg>
