<?xml version="1.0" encoding="utf-8"?>
<!-- Generator: Adobe Illustrator 23.0.3, SVG Export Plug-In . SVG Version: 6.00 Build 0)  -->
<svg version="1.1" id="Слой_1" xmlns="http://www.w3.org/2000/svg" xmlns:xlink="http://www.w3.org/1999/xlink" x="0px" y="0px"
	 viewBox="0 0 24 24" style="enable-background:new 0 0 24 24;" xml:space="preserve">
<style type="text/css">
	.st0{fill-rule:evenodd;clip-rule:evenodd;fill:#CBD3E3;}
</style>
<path class="st0" d="M18,10c0,4.4-3.6,8-8,8c-4.4,0-8-3.6-8-8c0-4.4,3.6-8,8-8C14.4,2,18,5.6,18,10z M16.3,17.7
	C14.6,19.2,12.4,20,10,20C4.5,20,0,15.5,0,10C0,4.5,4.5,0,10,0c5.5,0,10,4.5,10,10c0,2.4-0.8,4.6-2.3,6.3l6,6c0.4,0.4,0.4,1,0,1.4
	c-0.4,0.4-1,0.4-1.4,0L16.3,17.7z"/>
</svg>
