<?xml version="1.0" standalone="no"?>
<!DOCTYPE svg PUBLIC "-//W3C//DTD SVG 20010904//EN"
 "http://www.w3.org/TR/2001/REC-SVG-20010904/DTD/svg10.dtd">
<svg version="1.0" xmlns="http://www.w3.org/2000/svg"
 width="768.000000pt" height="768.000000pt" viewBox="0 0 768.000000 768.000000"
 preserveAspectRatio="xMidYMid meet">
<metadata>
Created by potrace 1.11, written by Peter Selinger 2001-2013
</metadata>
<g transform="translate(0.000000,768.000000) scale(0.100000,-0.100000)"
fill="#000000" stroke="none">
<path d="M3696 7540 c-64 -76 -116 -144 -116 -149 0 -6 8 -19 18 -29 9 -11 59
-74 111 -140 52 -67 100 -122 107 -122 7 0 16 9 19 20 3 11 10 20 14 20 4 0
24 24 46 53 21 28 44 57 49 62 6 6 33 39 59 73 42 55 46 66 35 80 -31 40 -95
119 -120 147 -14 16 -36 41 -47 55 -12 14 -30 35 -40 47 l-19 22 -116 -139z"/>
<path d="M3335 7079 c-162 -29 -287 -123 -322 -241 -25 -87 -4 -220 54 -332
31 -59 229 -354 269 -398 21 -24 27 -26 50 -18 15 6 29 8 32 6 2 -3 12 -1 21
3 9 5 34 11 56 14 22 3 60 10 85 16 52 12 107 22 135 26 11 2 20 4 20 5 0 10
111 15 145 8 215 -51 296 -67 396 -81 31 -5 35 0 117 117 131 187 216 325 233
380 9 28 18 91 20 140 4 109 -17 168 -85 237 -71 72 -169 112 -303 125 -63 7
-59 9 -143 -92 -22 -27 -47 -55 -55 -64 -8 -8 -26 -29 -38 -45 -23 -29 -92
-109 -161 -188 -31 -34 -36 -37 -47 -22 -7 9 -32 39 -56 68 -25 29 -78 90
-117 137 -40 47 -94 109 -120 139 -25 30 -49 58 -52 63 -6 9 -73 8 -134 -3z"/>
<path d="M4735 6136 c-52 -16 -162 -72 -260 -131 -147 -90 -277 -147 -360
-159 -16 -2 -58 -5 -92 -5 -72 -1 -73 -3 -39 -77 29 -62 97 -129 145 -145 53
-17 53 -17 28 -57 -47 -74 -169 -309 -232 -444 -10 -23 -14 -48 -11 -65 4 -15
9 -41 12 -58 2 -16 7 -37 9 -45 2 -8 7 -31 11 -50 8 -47 9 -52 17 -75 4 -11 9
-34 11 -50 5 -35 15 -84 21 -105 2 -8 7 -28 9 -45 3 -16 15 -73 26 -125 12
-52 23 -104 25 -115 3 -11 7 -31 10 -45 3 -14 7 -34 9 -45 3 -11 12 -56 21
-100 9 -44 19 -89 21 -100 2 -11 6 -29 8 -40 3 -11 12 -57 22 -102 9 -46 20
-83 25 -83 4 0 14 7 23 15 8 8 17 15 20 15 2 0 47 28 98 63 415 282 711 477
716 472 4 -3 2 -9 -4 -13 -6 -4 -19 -22 -28 -39 -9 -18 -21 -33 -26 -33 -5 0
-12 -11 -16 -24 -3 -14 -14 -32 -25 -42 -10 -9 -19 -20 -19 -24 0 -6 -180
-284 -197 -305 -5 -5 -42 -62 -83 -125 -41 -63 -78 -116 -82 -118 -5 -2 -8 -8
-8 -13 0 -9 -36 -66 -50 -79 -3 -3 -13 -17 -22 -31 l-17 -26 53 -12 c30 -7 66
-14 82 -17 16 -3 83 -16 149 -30 66 -14 143 -29 170 -34 47 -9 66 -12 125 -25
14 -3 36 -8 50 -10 14 -3 61 -12 105 -21 44 -9 90 -17 102 -19 11 -2 29 -6 40
-9 10 -3 34 -8 53 -11 19 -3 51 -10 70 -15 19 -5 58 -12 85 -16 28 -3 54 -8
58 -11 5 -3 23 -7 40 -9 18 -3 52 -9 77 -14 25 -5 56 -12 70 -14 62 -11 90
-19 90 -25 0 -4 -8 -7 -17 -7 -10 -1 -29 -4 -43 -7 -23 -5 -201 -42 -246 -51
-10 -3 -64 -14 -119 -26 -55 -12 -111 -24 -125 -27 -14 -2 -53 -10 -88 -18
-34 -8 -74 -17 -90 -20 -15 -3 -37 -7 -49 -10 -52 -12 -62 -14 -94 -19 -19 -3
-49 -10 -68 -15 -19 -6 -38 -8 -42 -5 -5 3 -9 2 -9 -3 0 -4 -10 -9 -23 -10
-12 -1 -101 -18 -197 -39 -96 -20 -181 -37 -187 -37 -7 0 -13 -4 -13 -9 0 -8
48 -86 60 -98 10 -10 70 -101 70 -106 0 -3 6 -12 13 -19 21 -24 30 -37 121
-175 50 -74 94 -136 98 -138 4 -2 8 -8 8 -13 0 -11 131 -203 142 -207 4 -2 8
-8 8 -14 0 -5 11 -24 24 -41 13 -18 29 -43 36 -57 13 -24 12 -24 -6 -10 -31
25 -37 29 -76 55 -110 72 -464 310 -468 314 -3 3 -17 12 -32 20 -16 8 -28 18
-28 23 0 4 -6 8 -12 8 -7 0 -29 14 -48 30 -19 16 -41 30 -47 30 -7 0 -13 5
-13 10 0 6 -6 10 -13 10 -7 0 -22 8 -33 18 -11 9 -34 27 -51 39 l-30 22 -26
-87 c-15 -48 -44 -150 -66 -227 l-39 -140 39 -20 c21 -11 240 -141 486 -290
247 -148 458 -274 470 -280 13 -5 23 -13 23 -17 0 -5 4 -8 9 -8 5 0 7 15 5 33
-8 62 -9 119 -2 123 4 3 5 11 2 18 -9 24 45 165 85 225 36 52 58 75 132 136
69 57 203 98 314 98 117 -1 187 -19 280 -73 141 -81 253 -255 260 -403 2 -32
5 -61 8 -63 6 -6 -17 -125 -37 -189 -21 -67 -22 -66 24 -50 22 8 40 12 40 10
0 -2 16 3 35 11 19 8 35 12 35 9 0 -2 11 0 26 5 14 6 39 12 57 15 18 4 76 17
129 31 117 29 119 29 149 3 13 -11 49 -42 79 -69 30 -27 66 -58 80 -70 14 -12
50 -43 80 -70 30 -26 83 -71 118 -100 l62 -52 0 37 c0 30 -38 156 -67 225 -3
8 -7 17 -8 20 -1 3 -16 50 -34 105 -18 55 -34 107 -36 115 -2 8 -8 27 -14 43
-6 15 -9 27 -6 27 2 0 -1 15 -6 33 -5 17 -12 48 -15 67 -3 19 -9 49 -14 65 -5
17 -12 57 -16 90 -4 33 -8 69 -10 80 -2 11 -6 74 -8 140 -3 66 -6 122 -7 125
-1 3 -1 9 0 14 1 5 4 86 6 180 7 243 13 347 31 561 10 114 16 161 31 240 7 40
6 323 -2 355 -3 14 -8 43 -11 65 -2 22 -6 47 -8 55 -1 8 -6 33 -11 55 -20 107
-75 262 -142 405 -31 66 -137 247 -153 260 -3 3 -17 21 -30 40 -41 58 -51 70
-155 175 -111 112 -138 135 -240 205 -64 43 -228 129 -258 134 -6 1 -37 10
-67 18 -49 15 -174 34 -240 37 -98 4 -302 -77 -387 -154 -51 -45 -114 -150
-127 -212 -4 -17 -29 -55 -56 -85 -37 -42 -60 -58 -94 -68 -101 -28 -177 -16
-247 38 -50 39 -117 133 -137 192 -73 218 4 511 183 695 104 107 169 147 288
178 114 30 330 4 360 -43 15 -26 22 -25 26 3 13 103 -16 197 -82 269 -41 46
-80 65 -148 73 -30 3 -63 13 -74 21 -61 45 -113 75 -145 84 -47 13 -126 11
-175 -4z"/>
<path d="M2781 6129 c-38 -12 -103 -51 -140 -85 -17 -16 -38 -24 -60 -24 -129
0 -244 -125 -251 -274 -4 -61 0 -96 10 -96 6 0 10 7 10 15 0 34 120 65 253 66
227 1 449 -160 563 -409 124 -270 70 -573 -120 -669 -93 -48 -234 -36 -298 25
-15 14 -53 76 -84 139 -71 144 -120 196 -235 251 -131 62 -295 89 -409 67 -19
-4 -44 -8 -55 -10 -39 -7 -121 -32 -145 -45 -14 -7 -26 -12 -28 -11 -5 4 -147
-71 -192 -102 -231 -158 -423 -374 -557 -627 -44 -83 -112 -239 -118 -269 -2
-11 -9 -29 -15 -40 -6 -12 -8 -21 -6 -21 3 0 1 -11 -4 -25 -11 -29 -14 -42
-35 -145 -23 -112 -27 -151 -28 -310 -1 -126 8 -274 18 -290 2 -3 6 -28 9 -55
3 -28 8 -77 12 -110 8 -71 10 -117 20 -335 13 -294 9 -572 -10 -680 -3 -14 -7
-41 -10 -60 -3 -19 -8 -46 -11 -60 -9 -38 -14 -63 -19 -86 -6 -28 -23 -90 -58
-208 -16 -54 -31 -106 -33 -115 -2 -9 -27 -83 -55 -164 -35 -99 -49 -152 -43
-158 9 -9 85 48 169 126 6 5 35 30 64 55 50 42 89 75 185 158 29 25 44 32 64
27 14 -3 37 -8 51 -11 14 -2 45 -9 70 -14 25 -6 56 -13 70 -15 14 -3 37 -8 52
-11 15 -3 30 -5 33 -5 2 0 19 -5 37 -10 18 -5 47 -12 63 -14 17 -3 42 -8 57
-11 15 -3 30 -6 33 -6 2 0 27 -6 55 -13 37 -10 50 -10 50 -2 0 16 -123 271
-132 275 -5 2 -8 9 -8 16 0 6 -20 53 -45 104 -30 61 -52 92 -63 93 -46 2 -123
32 -176 68 -203 140 -230 434 -56 609 124 125 316 153 473 69 88 -46 147 -119
195 -239 6 -15 10 -69 9 -120 -3 -83 -7 -100 -37 -160 -19 -38 -37 -68 -42
-68 -19 0 0 -43 133 -310 l141 -281 51 6 c27 4 58 8 67 10 9 2 41 7 71 10 30
4 65 9 79 11 41 6 143 17 175 19 46 2 66 11 182 82 59 36 128 77 153 91 40 23
109 64 165 99 11 7 38 22 60 34 22 12 42 24 45 28 3 3 25 17 50 30 25 13 50
28 57 33 25 20 246 148 254 148 5 0 9 5 9 10 0 6 4 10 9 10 6 0 40 19 76 42
60 37 66 43 60 67 -4 14 -9 37 -11 51 -3 14 -7 39 -11 55 -9 40 -8 34 -18 90
-4 28 -9 55 -10 60 -2 6 -8 36 -14 68 -13 59 -20 67 -41 42 -7 -8 -19 -15 -27
-15 -7 0 -16 -7 -19 -15 -4 -8 -10 -15 -14 -15 -5 0 -82 -50 -172 -110 -90
-61 -221 -150 -293 -197 -71 -48 -132 -90 -135 -93 -20 -21 -179 -117 -172
-103 6 10 139 211 296 446 157 236 286 432 286 437 0 4 -42 15 -92 24 -51 9
-111 21 -133 26 -22 6 -101 21 -175 35 -74 14 -169 33 -210 41 -76 16 -101 21
-142 28 -13 2 -68 13 -123 25 -55 11 -112 22 -128 25 -15 3 -35 7 -45 10 -9 3
-31 7 -47 10 -17 2 -68 11 -115 21 -117 24 -110 23 -163 31 -26 3 -47 10 -47
15 0 5 4 9 8 9 5 0 85 16 178 36 93 20 178 38 189 40 11 2 94 19 184 39 90 19
176 37 190 39 14 2 26 5 26 6 0 1 11 3 25 6 22 4 115 23 145 30 6 1 25 5 44 9
19 3 37 8 41 10 4 3 22 7 41 9 30 5 312 63 332 69 8 2 -261 410 -275 415 -4 2
-8 8 -8 14 0 6 -20 39 -45 75 -25 35 -45 68 -45 73 0 4 -4 10 -8 12 -5 2 -36
44 -69 93 -33 50 -74 110 -91 135 -17 25 -29 46 -27 48 1 2 69 -39 149 -90 81
-51 161 -102 179 -112 18 -11 83 -53 145 -93 62 -40 116 -73 121 -73 5 0 11
-3 13 -7 4 -11 85 -63 96 -63 5 0 17 -9 27 -20 10 -11 22 -20 27 -20 5 0 30
-14 54 -31 44 -30 56 -31 60 -6 14 78 24 136 28 153 2 12 7 39 10 60 4 22 15
84 26 139 29 155 32 168 35 195 2 14 8 50 15 80 13 65 22 118 23 143 1 9 5 17
10 17 4 0 6 3 4 8 -3 4 6 66 20 137 53 282 55 241 -22 390 -76 147 -171 310
-197 339 -10 11 -18 22 -18 26 0 3 22 16 49 28 75 36 153 128 165 195 4 23 2
23 -62 22 -60 -2 -175 14 -189 25 -2 2 -6 3 -10 4 -5 1 -30 12 -57 24 -27 12
-50 22 -53 22 -5 0 -169 95 -258 151 -123 76 -245 104 -334 78z"/>
<path d="M5715 5754 c-16 -14 -46 -38 -65 -53 -19 -14 -37 -28 -40 -32 -3 -3
-33 -22 -67 -42 -81 -49 -164 -77 -240 -82 -65 -4 -183 18 -194 36 -6 11 -110
6 -130 -6 -5 -4 -20 -8 -34 -11 -48 -9 -144 -87 -173 -141 -10 -19 -7 -19 86
-17 87 2 103 0 147 -22 61 -31 108 -75 141 -131 27 -47 33 -52 33 -25 0 9 2
31 6 48 3 18 7 56 8 85 2 52 3 53 32 54 91 3 223 59 315 134 56 45 83 72 140
141 82 99 88 110 35 64z"/>
<path d="M1954 5725 c58 -73 174 -187 229 -224 63 -43 167 -90 214 -97 67 -10
78 -11 83 -13 3 0 5 -34 6 -74 1 -77 9 -127 22 -127 4 0 13 13 19 28 18 39 83
106 124 127 50 27 125 41 201 40 l66 -2 -16 26 c-67 106 -188 167 -315 158
-34 -2 -73 -7 -87 -11 -51 -15 -151 -15 -207 0 -56 14 -183 69 -193 84 -3 4
-16 13 -29 20 -26 13 -27 14 -81 57 -69 56 -74 57 -36 8z"/>
<path d="M3820 4103 c-28 -148 -54 -277 -56 -288 -2 -11 -6 -32 -9 -48 -17
-90 -37 -173 -44 -180 -4 -4 -14 -1 -21 8 -7 8 -18 15 -25 15 -8 0 -15 3 -17
8 -4 9 -53 42 -90 61 -16 8 -28 18 -28 21 0 4 -13 13 -30 20 -16 7 -30 16 -30
21 0 5 -4 9 -10 9 -5 0 -59 34 -121 75 -62 42 -113 74 -115 72 -2 -2 34 -59
81 -128 47 -68 90 -132 97 -143 7 -10 21 -29 31 -41 9 -13 17 -28 17 -33 0 -6
4 -12 8 -14 8 -3 104 -138 98 -138 -2 0 -54 -11 -117 -25 -63 -14 -130 -28
-149 -31 -19 -3 -43 -10 -52 -15 -10 -5 -18 -8 -18 -5 0 3 -20 -1 -44 -8 -25
-8 -47 -12 -50 -9 -2 3 -11 1 -18 -3 -7 -4 -19 -9 -28 -9 -8 -1 -31 -6 -50
-10 -19 -5 -37 -9 -40 -10 -5 -1 -102 -22 -137 -30 -48 -10 -62 -14 -96 -23
-20 -6 -39 -7 -43 -4 -4 4 -4 2 -1 -4 4 -6 35 -17 69 -24 84 -16 67 -13 289
-59 108 -22 207 -42 220 -45 96 -19 226 -47 238 -52 11 -4 11 -8 -3 -22 -9
-10 -16 -21 -16 -24 0 -4 -62 -102 -100 -158 -28 -41 -120 -184 -120 -186 0
-1 -20 -32 -45 -68 -25 -36 -41 -66 -36 -66 8 0 226 145 266 177 6 4 37 26 70
48 33 21 76 51 96 66 43 34 60 39 65 19 9 -45 14 -63 18 -78 3 -9 8 -33 11
-52 3 -19 11 -55 16 -80 6 -25 13 -56 15 -70 3 -14 10 -43 16 -65 5 -22 12
-51 14 -65 2 -14 10 -54 19 -90 8 -36 17 -76 19 -90 11 -57 17 -88 30 -140 11
-46 14 -51 20 -30 6 25 40 204 51 270 3 19 13 69 21 110 19 95 63 324 70 370
3 19 8 37 10 39 4 5 56 -20 64 -30 3 -4 35 -25 72 -48 65 -39 106 -65 249
-158 37 -24 70 -43 73 -43 4 0 16 -9 28 -20 12 -11 24 -18 26 -15 4 4 -227
360 -265 410 -30 39 -63 97 -59 104 3 5 22 11 43 14 21 3 49 8 62 11 14 3 70
15 125 26 56 12 142 30 191 41 50 12 100 23 113 25 34 6 65 12 92 19 14 3 39
8 55 10 17 3 52 11 80 18 l50 13 -85 18 c-47 10 -96 19 -110 21 -14 2 -50 9
-80 15 -30 6 -64 13 -75 14 -11 2 -69 13 -130 26 -60 12 -126 24 -145 27 -19
2 -48 8 -65 13 -16 5 -52 12 -80 16 -27 3 -51 7 -51 8 -1 0 74 115 167 254
159 237 184 287 115 227 -16 -14 -33 -25 -37 -25 -4 0 -14 -6 -21 -13 -11 -11
-155 -110 -206 -142 -9 -5 -25 -18 -36 -27 -11 -10 -28 -20 -38 -24 -10 -3
-18 -10 -18 -15 0 -5 -5 -9 -10 -9 -6 0 -24 -10 -40 -22 -31 -22 -42 -20 -46
10 -3 23 -11 63 -30 147 -9 39 -18 81 -20 95 -3 14 -16 77 -30 140 -31 141
-45 209 -49 235 -2 11 -10 48 -18 82 -8 34 -12 64 -9 67 3 3 1 6 -5 6 -6 0
-34 -120 -63 -267z m174 -623 c106 -49 175 -167 171 -295 -2 -52 -23 -125 -37
-125 -4 0 -8 -6 -8 -14 0 -7 -19 -30 -41 -51 -160 -144 -402 -103 -490 84 -20
43 -41 165 -30 177 3 2 6 15 8 27 11 68 90 166 163 199 87 40 175 39 264 -2z"/>
<path d="M3854 3407 c-12 -17 -37 -61 -57 -97 -19 -36 -49 -89 -66 -118 -17
-29 -37 -65 -45 -81 l-15 -28 214 0 214 0 -16 31 c-9 17 -19 33 -22 36 -7 6
-123 195 -154 253 -11 20 -23 37 -26 37 -3 0 -16 -15 -27 -33z"/>
<path d="M1598 2544 c-24 -52 -27 -54 -39 -36 -8 10 -32 31 -53 46 -92 62
-173 11 -174 -111 0 -29 -1 -57 -1 -62 -1 -12 -19 -8 -60 13 l-33 18 5 -52
c10 -90 89 -171 171 -173 25 -1 32 -5 33 -21 2 -19 57 -76 72 -74 43 5 58 -4
76 -44 10 -24 49 -106 86 -183 37 -77 95 -203 128 -280 34 -77 66 -148 71
-157 13 -23 13 -58 0 -58 -15 0 -50 -90 -50 -131 0 -42 37 -132 50 -124 4 3
10 -2 13 -10 9 -22 59 -43 113 -47 l49 -3 38 -90 c21 -49 44 -103 50 -118 9
-21 17 -27 32 -23 11 3 30 6 43 6 23 0 45 36 34 55 -4 6 -7 15 -8 20 -2 14
-55 143 -75 185 -20 40 -15 46 47 56 22 3 70 14 108 26 38 11 76 21 85 23 9 2
45 10 81 19 91 21 145 28 222 31 l67 2 53 54 c49 50 166 119 201 119 7 0 18 5
25 12 7 7 12 8 12 4 0 -5 7 -3 15 4 8 7 15 10 15 7 0 -4 19 0 41 9 23 8 51 16
63 19 12 2 31 6 44 9 21 6 32 8 92 21 98 21 226 43 355 61 77 11 85 13 94 18
6 4 6 19 1 39 -5 17 -12 48 -15 67 -3 19 -13 64 -21 100 -8 36 -17 79 -20 95
-18 104 -32 150 -44 147 -8 -2 -185 -106 -395 -231 -209 -125 -409 -245 -445
-265 -36 -20 -72 -41 -80 -46 -78 -48 -270 -151 -270 -144 0 2 -13 -2 -29 -10
-15 -8 -39 -17 -52 -20 -13 -3 -35 -8 -49 -11 -45 -10 -124 -9 -160 4 -21 7
-46 27 -62 51 -31 45 -97 90 -131 90 -24 0 -26 4 -97 165 -13 28 -46 100 -75
160 -28 61 -59 126 -67 145 -9 19 -30 67 -47 105 -17 39 -40 87 -51 108 -12
20 -17 37 -12 37 26 0 45 106 22 120 -6 3 -1 23 12 49 28 56 31 106 9 156 -18
41 -67 105 -80 105 -5 0 -19 -25 -33 -56z"/>
<path d="M5593 2033 c-12 -15 -40 -48 -63 -73 l-40 -45 63 -63 64 -64 62 61
c33 34 61 65 61 69 0 4 -28 38 -63 75 l-62 68 -22 -28z"/>
<path d="M4000 2012 c0 -8 -17 -109 -35 -204 -13 -70 -16 -87 -27 -151 -6 -37
-9 -69 -7 -71 2 -2 36 -7 75 -10 39 -4 82 -9 95 -12 13 -2 40 -7 59 -10 209
-34 448 -128 534 -210 25 -24 43 -44 40 -44 -3 0 1 -6 8 -13 10 -11 23 -11 78
1 41 10 122 16 220 16 188 1 241 -12 312 -79 83 -77 139 -101 256 -108 19 -1
36 1 39 5 2 5 8 6 13 3 18 -11 116 26 165 63 38 28 59 54 85 108 20 40 37 87
38 105 2 19 4 43 6 54 9 60 -40 176 -107 249 l-35 38 -101 -101 c-56 -56 -105
-101 -109 -101 -3 0 -53 46 -109 102 l-103 102 -36 -39 c-52 -56 -84 -133 -85
-205 -1 -33 -5 -63 -10 -66 -9 -5 -134 -6 -159 -1 -8 2 -42 9 -75 16 -68 15
-93 26 -185 86 -36 23 -103 64 -148 91 -46 27 -96 56 -110 65 -15 9 -80 48
-145 88 -65 39 -122 71 -127 71 -6 0 -10 5 -10 10 0 6 -4 10 -9 10 -5 0 -63
31 -130 69 -126 73 -161 89 -161 73z"/>
<path d="M3715 1389 c-208 -36 -275 -51 -388 -84 -262 -76 -403 -171 -412
-276 -5 -63 48 -138 133 -188 l53 -31 8 23 c46 121 124 211 226 262 33 16 62
30 65 30 3 1 17 7 32 13 28 12 134 43 143 43 2 0 26 6 52 14 l48 14 -25 -19
c-14 -11 -29 -20 -33 -20 -18 0 -145 -89 -201 -141 -140 -128 -216 -289 -186
-398 19 -72 114 -155 185 -163 24 -2 30 1 31 17 10 152 99 340 232 490 34 38
52 42 34 8 -31 -59 -136 -420 -131 -450 1 -5 0 -11 -1 -15 -5 -16 -6 -25 -14
-96 -7 -67 -6 -77 18 -125 34 -68 110 -168 185 -242 l61 -59 36 34 c30 29 124
135 164 186 5 7 21 36 37 65 34 66 39 153 12 247 -10 34 -18 65 -18 67 -1 3
-1 6 -2 8 0 1 -2 16 -4 32 -2 17 -9 48 -15 70 -7 22 -16 56 -20 75 -21 80 -52
186 -61 202 -11 22 -12 48 -1 48 11 0 75 -77 122 -144 19 -28 38 -53 41 -56
22 -17 88 -180 95 -233 2 -17 7 -52 10 -77 3 -25 8 -48 12 -52 12 -12 106 37
144 74 65 63 82 122 59 206 -7 24 -21 58 -31 75 -11 18 -23 39 -27 47 -32 68
-194 212 -343 307 -33 20 -45 32 -30 28 14 -3 36 -8 50 -11 145 -29 309 -99
383 -164 49 -44 101 -125 112 -177 4 -20 13 -33 22 -33 24 0 95 42 126 74 30
32 62 86 50 86 -4 0 -2 5 4 11 6 6 10 17 8 23 -2 6 -9 30 -15 53 -23 89 -127
162 -326 227 -105 35 -126 41 -184 52 -14 3 -59 12 -100 20 -41 9 -88 17 -105
20 -98 12 -119 16 -126 20 -14 8 -19 -10 -35 -114 -7 -49 -18 -42 -27 18 -9
56 -16 83 -24 90 -5 4 -53 -1 -108 -11z"/>
</g>
</svg>
